<?xml version="1.0" encoding="utf-8"?>
<!-- Generator: Adobe Illustrator 23.0.0, SVG Export Plug-In . SVG Version: 6.00 Build 0)  -->
<svg version="1.1" xmlns="http://www.w3.org/2000/svg" xmlns:xlink="http://www.w3.org/1999/xlink" x="0px" y="0px"
	 viewBox="0 0 1000 596.8" style="enable-background:new 0 0 1000 596.8;" xml:space="preserve">
<style type="text/css">
	.st0{clip-path:url(#SVGID_2_);}
	.st1{clip-path:url(#SVGID_4_);fill:#969ACB;}
	.st2{clip-path:url(#SVGID_4_);fill:none;stroke:#9699CA;stroke-width:9;stroke-linecap:round;stroke-miterlimit:10;}
	.st3{clip-path:url(#SVGID_6_);fill:url(#SVGID_7_);}
	.st4{clip-path:url(#SVGID_9_);fill:url(#SVGID_10_);}
	.st5{clip-path:url(#SVGID_12_);fill:url(#SVGID_13_);}
	.st6{clip-path:url(#SVGID_2_);fill:#DCDEEA;}
	
		.st7{clip-path:url(#SVGID_2_);fill:none;stroke:#453861;stroke-width:3;stroke-linecap:round;stroke-linejoin:round;stroke-miterlimit:10;}
	.st8{clip-path:url(#SVGID_2_);fill:#F1EABA;}
	.st9{clip-path:url(#SVGID_15_);fill:#7A2121;}
	.st10{clip-path:url(#SVGID_15_);fill:#DFE0EE;}
	.st11{display:none;clip-path:url(#SVGID_15_);fill:#7A2121;}
	.st12{clip-path:url(#SVGID_19_);fill:#745349;}
	.st13{display:none;clip-path:url(#SVGID_2_);}
	.st14{display:inline;}
	.st15{display:inline;clip-path:url(#SVGID_23_);fill:#9C4931;}
	.st16{display:inline;clip-path:url(#SVGID_23_);fill:#9C4832;}
	.st17{clip-path:url(#SVGID_25_);fill:#070809;}
	.st18{opacity:0.16;}
	.st19{opacity:0.45;fill:#585757;}
	.st20{font-family:'Montserrat-Bold';}
	.st21{font-size:124.0105px;}
	.st22{fill:#745349;}
	.st23{fill:#AB462E;}
	.st24{fill:none;}
	.st25{clip-path:url(#SVGID_27_);fill:#7A1E22;}
	.st26{fill:#2E3E7A;}
	.st27{fill:#7A2121;}
	.st28{font-family:'MyriadPro-Regular';}
	.st29{font-size:220.2855px;}
</style>
<g id="Camada_1">
	<g>
		<defs>
			<rect id="SVGID_1_" y="-124.2" width="1000" height="1000"/>
		</defs>
		<clipPath id="SVGID_2_">
			<use xlink:href="#SVGID_1_"  style="overflow:visible;"/>
		</clipPath>
		<g class="st0">
			<defs>
				<rect id="SVGID_3_" y="-124.2" width="1000" height="1000"/>
			</defs>
			<clipPath id="SVGID_4_">
				<use xlink:href="#SVGID_3_"  style="overflow:visible;"/>
			</clipPath>
			<path class="st1" d="M336,573.1c-54.2-34.9-109.6-70.8-147.6-120.4c-58.7-76.6-67.3-182.8-21.5-266.5
				c10.6-19.4,24.1-37.8,42.2-52C253.8,99,316.2,90.9,375.3,90.3c25.8-0.3,53.8,4.3,78.9,9.8c30.1,6.6,57.5,20.7,83.8,35.7
				c36.4,20.8,72,43.7,99.8,73.6c19.5,20.9,35.2,45.1,58,63.1c57.2,45.1,150.4,44.4,195.8,99.5c27.1,32.9,29.3,77.2,27.9,118.3
				c-1,29-5.5,62-31.5,78.8"/>
			<line class="st1" x1="86" y1="572.5" x2="967.2" y2="572.5"/>
			<line class="st2" x1="86" y1="572.5" x2="967.2" y2="572.5"/>
		</g>
		<g id="planta" class="st0">
			<defs>
				<path id="SVGID_5_" d="M45.9,190c-5.5,8.9-6,20.1-5.2,30.6c3.9,47.1,31.3,88.6,44.2,134.1c1.6,5.6,2.6,12.6-1.7,16.5
					c-4,3.7-10.3,2.6-15.3,0.7c-8.5-3-16.5-7.4-25.3-9.5c-8.8-2.1-18.9-1.4-25.5,4.8c-5.5,5.1-7.6,12.9-8.1,20.4
					c-1,16.2,5,32.8,16.1,44.6c10.2,10.9,24.1,17.4,37.6,23.7l83.9,39.1c3.3,1.5,6.8,3.2,8.8,6.2c4.8,7.1-1.3,17.3-9.3,20.2
					c-8,2.9-16.8,1.1-25.3,0.4c-8.5-0.8-18.1,0-23.7,6.4c-7.8,8.9-2.9,24,6.8,30.9c9.6,6.9,22.2,7.1,33.8,9.3
					c15,2.8,84.2,1.8,141.6,0.7c37.4-0.7,69.9-1.4,79.1-1c8.7-3.7,10.5-4.8,9.7-4.8c0.1,0,0.1,0,0.2-0.1
					c2.5-0.9,16.9-51.3,18.2-53.6c1.3-2.3-73-1-73.4-3.5c-4.7-30.1-19-22.6-7.5-50.9c11.4-28.2,25.7-55.5,32.7-85.2
					c2.9-12.3,4.2-26.6-3.8-36.5c-7.6-9.4-21.8-11.4-33-7c-11.2,4.4-19.8,13.9-26.1,24.2c-6.3,10.3-10.8,21.6-16.7,32.2
					c-5.9,10.6-16.6,21.7-28.1,18c-7.8-2.5-12.2-11.3-12.1-19.5c0.1-8.2,3.7-15.9,7.6-23.1c17.9-33.4,43-65.3,45.4-103.1
					c0.6-9.4-0.4-19.3-5.1-27.5c-4.7-8.2-13.6-14.4-23-13.7l-2,1.8c-20.2,33.2-44.9,63.6-73.2,90.1c-3.3,3.1-7.4,6.3-11.7,5.2
					c-4.8-1.2-6.8-6.8-8.1-11.7c-4.2-16.5-8.4-33.1-12.6-49.6c-3.8-15-7.7-30.1-15.2-43.6c-7.5-13.5-19.1-25.3-33.9-29.7
					c-3.5-1-7.3-1.6-11-1.6C63.9,174.9,52.1,180.1,45.9,190"/>
			</defs>
			<clipPath id="SVGID_6_">
				<use xlink:href="#SVGID_5_"  style="overflow:visible;"/>
			</clipPath>
			
				<linearGradient id="SVGID_7_" gradientUnits="userSpaceOnUse" x1="0" y1="875.7825" x2="1" y2="875.7825" gradientTransform="matrix(377.5281 0 0 -377.5281 8.877 331005.4375)">
				<stop  offset="0" style="stop-color:#8CAA8A"/>
				<stop  offset="0.6307" style="stop-color:#A4B387"/>
				<stop  offset="1" style="stop-color:#B3B885"/>
			</linearGradient>
			<rect x="8" y="174.9" class="st3" width="379.7" height="396.1"/>
		</g>
		<g class="st0">
			<defs>
				<path id="SVGID_8_" d="M767.9,54.8C753.2,59.1,741.5,71,734,84.5c-7.5,13.5-11.4,28.6-15.2,43.6c-4.2,16.5-8.4,33.1-12.6,49.6
					c-1.2,4.8-3.2,10.5-8.1,11.7c-4.3,1.1-8.4-2.2-11.7-5.2c-28.3-26.5-52.5-57.6-72.7-90.8l-2.7-2.1c-8.1-2.8-18.2,6.4-22.8,14.6
					c-4.7,8.2-5.7,18.1-5.1,27.5c2.4,37.9,27.5,69.7,45.4,103.1c3.9,7.2,7.5,14.9,7.6,23.1c0.1,8.2-4.3,17-12.1,19.5
					c-11.5,3.6-22.2-7.5-28.1-18c-5.9-10.6-10.4-21.9-16.7-32.2c-6.3-10.3-14.9-19.8-26.1-24.2c-11.2-4.4-25.4-2.4-33,7
					c-8,9.8-6.7,24.1-3.8,36.5c7.1,29.6,21.3,56.9,32.7,85.2c11.4,28.2,20.2,58.8,15.5,88.9c-0.4,2.6-119.5,20.1-118.3,22.4
					c0.7,1.3,11.7,0.2,21.8-1c8.3-0.9,16.2-1.9,17.3-1.5c12.1,4.4,9.4,3.6,6.6,2.8c-2.7-0.8-5.4-1.6,6.6,2.8
					c8.7-0.4,37.4,0,71.4,0.3c57.9,0.6,131.1,1.2,146.7-1.7c11.6-2.2,24.2-2.4,33.8-9.3c9.6-6.9,14.6-21.9,6.8-30.9
					c-5.6-6.4-15.3-7.2-23.7-6.4c-8.5,0.8-17.3,2.6-25.3-0.4c-8-2.9-14.1-13.1-9.3-20.2c2.1-3,5.5-4.7,8.8-6.2
					c28-13,55.9-26,83.8-39.1c13.5-6.3,27.4-12.8,37.6-23.7c11.1-11.8,17.1-28.3,16.1-44.6c-0.5-7.5-2.6-15.3-8.1-20.4
					c-6.7-6.1-16.8-6.8-25.5-4.8c-8.8,2.1-16.8,6.5-25.3,9.5c-5.1,1.8-11.4,2.9-15.3-0.7c-4.3-3.9-3.3-10.9-1.7-16.5
					c12.8-45.4,40.2-87,44.2-134.1c0.9-10.5,0.4-21.6-5.2-30.6c-6.2-10-18-15.1-29.8-15.1C775.2,53.2,771.5,53.8,767.9,54.8"/>
			</defs>
			<clipPath id="SVGID_9_">
				<use xlink:href="#SVGID_8_"  style="overflow:visible;"/>
			</clipPath>
			
				<linearGradient id="SVGID_10_" gradientUnits="userSpaceOnUse" x1="0" y1="875.7829" x2="1" y2="875.7829" gradientTransform="matrix(-399.3116 0 0 -399.3116 845.7238 349961.5938)">
				<stop  offset="0" style="stop-color:#8CAA8A"/>
				<stop  offset="0.6307" style="stop-color:#A4B387"/>
				<stop  offset="1" style="stop-color:#B3B885"/>
			</linearGradient>
			<rect x="445.2" y="53.2" class="st4" width="401.5" height="396.2"/>
		</g>
		<g class="st0">
			<defs>
				<path id="SVGID_11_" d="M704.8,534c0.3-0.5,0.6-1,0.9-1.4C705.4,533,705.1,533.4,704.8,534 M919.2,210.7
					c-13.6,7-21.8,21.9-24.7,37c-0.7,3.8-1.3,7.8-3.6,10.8c-4.7,6.1-14.1,5.4-21.4,3.1c-7.3-2.3-15.3-5.6-22.4-2.7
					c-7.1,2.9-10.6,11-11.2,18.6c-0.6,7.6,1.1,15.2,1.2,22.9c0.2,15.8-6.2,30.9-12.6,45.4c-3.6,8.1-7.2,16.4-12.9,23.2
					c-5.7,6.8-13.7,12.1-22.6,12.4c-2.8,0.1-5.8-0.3-8.8-0.6c-7.3-0.9-14.4-1.7-18.7,3.6c-1.5,1.9-2.3,4.2-2.7,6.6
					c-2.8,14.9,5.9,29.9,4.9,45c-1.1,17.2-13.9,30.8-23.5,45.1c-9.2,13.6-16,28.8-19.8,44.8c-2.1,8.8-3.8,6.8-6.1,4.7
					c-2.1-1.8-4.6-3.6-8.5,2c3.1-3.3,10.3-0.4,17.7,2.5c5.7,2.3,11.6,4.5,15.6,3.9c9.9-1.7,16.7,1,26.4,3.4c11,2.8,13.8,5.7,24.4,10
					c-0.5-16.2,1.3-12.5,9.9-26.2c8.8-14,24.9-21.4,40.5-26.7c15.6-5.4,32.1-9.9,44.6-20.7c12.5-10.8,19.4-30.4,10.3-44.3
					c-5-7.6-14.1-12.7-16.2-21.5c-2.3-9.5,4.7-18.9,12.9-24c8.3-5.1,18-7.4,26.3-12.4c16.8-10,26.4-31,22.9-50.4l-1.1,6.5
					c2.6-23.2,7.9-46.2,15.7-68.2c5-14.2,10.9-30.3,3.8-43.5c-4.9-9-15-13.6-25.3-13.6C928.9,207.2,923.7,208.4,919.2,210.7"/>
			</defs>
			<clipPath id="SVGID_12_">
				<use xlink:href="#SVGID_11_"  style="overflow:visible;"/>
			</clipPath>
			
				<linearGradient id="SVGID_13_" gradientUnits="userSpaceOnUse" x1="1.183721e-06" y1="875.7838" x2="1" y2="875.7838" gradientTransform="matrix(257.8105 0 0 -257.8105 704.8316 226166.0469)">
				<stop  offset="0" style="stop-color:#B3B885"/>
				<stop  offset="1" style="stop-color:#657A80"/>
				<stop  offset="1" style="stop-color:#657A80"/>
			</linearGradient>
			<rect x="704.8" y="207.2" class="st5" width="261.7" height="345.1"/>
		</g>
		<polygon class="st6" points="230.4,446 180.1,551.1 333.4,522.4 492.5,551.1 638.2,522.4 788.9,551.1 739.5,446 608.9,423.9 
			485.9,455.9 366,423.9 		"/>
		<polygon class="st7" points="230.4,446 180.1,551.1 333.4,522.4 492.5,551.1 638.2,522.4 788.9,551.1 739.5,446 608.9,423.9 
			485.9,455.9 366,423.9 		"/>
		<polygon class="st8" points="222,466.8 283.2,439 304.3,435.4 260.9,465.8 314,524.4 292.9,528.5 		"/>
		<polygon class="st8" points="197.1,518.9 293.4,528.4 278.7,531.1 193.1,527.5 		"/>
		<polygon class="st8" points="187.1,540.1 212.6,543.5 226.3,541 190.3,533.2 		"/>
		<polygon class="st8" points="334,430.5 382.8,466.8 370.9,527.7 401.4,533.2 397.8,433.9 365.9,425.4 		"/>
		<polygon class="st8" points="437.3,444.4 455.4,508.4 516.9,504.1 510,546.1 559,536.5 538.7,443.7 516.6,449.4 519.3,492.6 
			476,492.6 456.8,449.5 		"/>
		<polygon class="st8" points="585.8,431.3 766.6,503.6 749.3,466.8 599.7,427.7 590.2,430.2 		"/>
		<polygon class="st8" points="620.2,524.6 640.2,430.6 671.9,435.8 631.4,522.6 		"/>
		<g class="st0">
			<defs>
				<rect id="SVGID_14_" y="-124.2" width="1000" height="1000"/>
			</defs>
			<clipPath id="SVGID_15_">
				<use xlink:href="#SVGID_14_"  style="overflow:visible;"/>
			</clipPath>
			<path class="st9" d="M357.8,258.8c0,0,1.6-132.2,126.2-122.9s129.3,115.3,129.3,115.3s3.4,54.1-24.2,90L484,487l-94.3-130.3
				C389.7,356.7,356.7,300.6,357.8,258.8"/>
			<path class="st10" d="M550.3,258.8c0,35.4-29.6,64.1-66.2,64.1s-66.2-28.7-66.2-64.1c0-35.4,29.6-64.1,66.2-64.1
				S550.3,223.4,550.3,258.8"/>
			<path class="st11" d="M355.6,183.4L355.6,183.4c-1.5,2.1-4.4,2.7-6.6,1.3l-27.6-18.2c-2.2-1.4-2.8-4.3-1.3-6.5
				c1.5-2.1,4.4-2.7,6.6-1.3l27.6,18.2C356.5,178.4,357,181.3,355.6,183.4"/>
			<path class="st11" d="M355.3,157.3L355.3,157.3c-1.5,2.1-4.4,2.7-6.6,1.3l-27.6-18.2c-2.2-1.4-2.8-4.3-1.3-6.5
				c1.5-2.1,4.4-2.7,6.6-1.3l27.6,18.2C356.2,152.2,356.8,155.1,355.3,157.3"/>
			<path class="st11" d="M383.4,147.4L383.4,147.4c-1.5,2.1-4.4,2.7-6.6,1.3l-27.6-18.2c-2.2-1.4-2.8-4.3-1.3-6.5
				c1.5-2.1,4.4-2.7,6.6-1.3l27.6,18.2C384.3,142.3,384.9,145.2,383.4,147.4"/>
		</g>
		<g class="st0">
			<defs>
				<rect id="SVGID_16_" y="-124.2" width="1000" height="1000"/>
			</defs>
			<clipPath id="SVGID_17_">
				<use xlink:href="#SVGID_16_"  style="overflow:visible;"/>
			</clipPath>
		</g>
		<g id="corpo" class="st0">
			<defs>
				<rect id="SVGID_18_" y="-124.2" width="1000" height="1000"/>
			</defs>
			<clipPath id="SVGID_19_">
				<use xlink:href="#SVGID_18_"  style="overflow:visible;"/>
			</clipPath>
			<path class="st12" d="M700.7,205.4c2.5,5.1,5,10.3,5.9,15.9c0.4,2.8,0.5,5.7,0.9,8.6c0.8,5.3,3.2,10.3,6.7,14.3
				c0.8,0.9,1.7,1.8,2.8,2.4c1.2,0.6,2.5,0.7,3.9,0.7c1.9,0,3.9-0.1,5.6-1c2.7-1.3,4.5-3.9,5.6-6.6c1.2-2.7,1.9-5.6,3.2-8.2
				c0.3-0.7,0.7-1.3,1.3-1.7c0.8-0.5,1.8-0.6,2.6-1c1.7-0.8,2.5-2.5,3.1-4.2c0.4-1,0.8-2.2,0.5-3.3c-0.5-2.2-3.1-3.2-5.4-3.9
				c-1.1-0.3-2.2-0.6-3-1.4c-1.4-1.3-1.7-3.3-2-5.2c-0.4-2.1-1.1-4.2-2.1-6.1c-0.3-0.7-0.7-1.4-1.3-1.9c-0.8-0.7-1.9-1.1-3-1.4
				c-7.7-2-15.9-0.5-23.7,1c-0.3,0.1-0.6,0.1-0.8,0.3c-0.8,0.6,0.1,2-0.5,2.8"/>
			<path class="st12" d="M719,244.8c0.3,2.2,0.6,4.5,1.6,6.5c0.8,1.5,2,2.8,2.2,4.5c0,0.4,0.1,0.8,0.3,1.1c0.3,0.3,0.7,0.4,1.1,0.4
				c3.3,0.3,6.5,0.3,9.8,0.1c0.1,0,0.3,0,0.4-0.1c0.1-0.1,0.1-0.4,0.1-0.5c-0.9-5.6-2.6-11-5-16.1c-0.1-0.3-0.3-0.6-0.6-0.8
				c-0.3-0.2-0.6-0.2-0.9-0.2c-2.1-0.2-4.2,0.3-6.2,0.9c-1,0.3-2,0.5-2.7,1.3c-0.7,0.7-0.8,2-0.1,2.6"/>
		</g>
		<g class="st13">
			<defs>
				<rect id="SVGID_20_" y="-124.2" width="1000" height="1000"/>
			</defs>
			<clipPath id="SVGID_21_" class="st14">
				<use xlink:href="#SVGID_20_"  style="overflow:visible;"/>
			</clipPath>
		</g>
		<g id="camisavelha" class="st13">
			<defs>
				<rect id="SVGID_22_" y="-124.2" width="1000" height="1000"/>
			</defs>
			<clipPath id="SVGID_23_" class="st14">
				<use xlink:href="#SVGID_22_"  style="overflow:visible;"/>
			</clipPath>
			<path class="st15" d="M628.8,225.2c13.7,7.2,27.7,12.5,42.2,18c8.6,3.3,17.4,6.2,26.4,8.1c16.3,3.4,33.1,3.2,49.7,3.1
				c13.9-0.1,28-0.3,41.1-4.7c15.5-5.1,28.7-15.7,43.9-21.8c0.7-0.3,1.4-0.5,2.1-0.3c0.9,0.3,1.4,1.4,1.6,2.3
				c0.9,2.8,1.7,5.6,2.6,8.5c-13.3,6.7-26.6,13.5-38.7,22.2c-9.1,6.6-17.6,14.3-28,18.7c-1.9,0.8-3.9,1.5-5.4,3
				c-1.9,1.8-2.5,4.5-3,7.1c-5.2,27.4-5.1,45.4,2.1,72.3c0.3,1.1,2.3,7.8,2.3,10.4c0,0.6-2.5,0.9-3.2,0.9c-10.3,1.5-15.8,0.9-26.1,0
				c-14.3-1.3-29.1-1.3-44.9-5.8c1.3-29.6,0.5-54.6-1.4-84.2c-0.1-2-0.3-4-1-5.8c-2-5.2-7.8-7.7-13-9.8
				c-15.7-6.3-30.8-14.3-44.9-23.7c-3.2-2.1-8.4-4.4-7.7-8.2c0.6-3.1,1.3-5.3,3.2-10.1"/>
			<path class="st16" d="M627.4,225.7c13.3,7,27.4,12.4,41.5,17.7c7.1,2.7,14.3,5.2,21.8,7.1c7.4,1.9,15,3.1,22.6,3.7
				c7.7,0.7,15.5,0.8,23.3,0.8c7.6,0,15.1,0,22.7-0.3c7.4-0.3,14.9-1,22.1-2.6c6.9-1.5,13.5-4.1,19.8-7.3c7-3.5,13.7-7.6,20.6-11.3
				c3.4-1.8,7-3.8,10.6-5.1c0.9-0.3,1.4,0.1,1.8,1c0.4,0.9,0.6,1.9,0.9,2.8c0.7,2.2,1.4,4.4,2,6.6c0.2-0.2,0.4-0.4,0.6-0.6
				c-13.6,6.9-27.3,13.8-39.6,22.9c-5.8,4.3-11.4,8.9-17.4,12.9c-3,2-6.2,3.7-9.6,5.1c-2.9,1.2-5.8,2.4-7.4,5.3
				c-1.7,3.1-2,7-2.6,10.4c-0.6,3.6-1.2,7.2-1.6,10.8c-0.8,6.7-1.2,13.4-1.1,20.1c0.3,13.2,2.9,26.1,6.4,38.7
				c0.6,2.3,1.3,4.8,1.6,7.2c0,0.1,0,0.6,0,0.6c0.2,0.3-0.3,0.1,0.4-0.1c-0.4,0.1-0.9,0.1-1.3,0.2c-1.9,0.2-3.7,0.5-5.6,0.7
				c-6.7,0.6-13.3,0-19.9-0.6c-7.4-0.7-14.8-1-22.1-1.7c-3.8-0.4-7.5-0.8-11.2-1.5c-1.9-0.3-3.8-0.7-5.6-1.1c-1-0.2-1.9-0.4-2.8-0.7
				c-0.8-0.2-2.9-0.4-3.1-1.2c-0.2-0.9,0.1-2.1,0.1-3c0-1,0.1-2,0.1-2.9c0.1-2.1,0.1-4.2,0.2-6.3c0.1-3.9,0.2-7.8,0.2-11.8
				c0-7.5,0-15-0.2-22.5c-0.2-7.6-0.5-15.2-0.9-22.8c-0.2-4-0.5-8-0.7-12.1c-0.2-3.5-0.2-7.3-2.2-10.4c-3.4-5-9.8-6.8-15-9
				c-7.1-2.9-14-6.2-20.7-9.8c-6.6-3.5-13.1-7.3-19.3-11.5c-2.4-1.6-5.1-3-7.3-4.9c-0.9-0.8-1.8-1.7-2.1-2.9
				c-0.3-1.2,0.1-2.5,0.4-3.7c0.7-2.7,1.7-5.3,2.7-7.9c0.2-0.5-2.6-0.2-2.9,0.5c-0.9,2.3-1.9,4.7-2.5,7.1c-0.5,1.7-1.2,3.7-0.4,5.4
				c0.9,1.9,2.8,3.1,4.5,4.2c2.3,1.4,4.5,2.9,6.8,4.4c10.5,6.8,21.6,12.8,33,17.8c2.9,1.3,5.8,2.5,8.7,3.6c2.3,0.9,4.5,1.9,6.6,3.2
				c2,1.3,3.9,2.9,5.1,5c1.5,2.7,1.5,6,1.7,9c0.8,12.8,1.5,25.7,1.8,38.5c0.3,14.6,0.2,29.2-0.4,43.7c0.1,0.1,0.1,0.2,0.3,0.2
				c8.9,2.5,18,3.7,27.1,4.5c8.6,0.7,17.3,1.4,26,2c3.7,0.3,7.5,0.3,11.3,0.1c2.2-0.1,4.3-0.4,6.5-0.7c1.4-0.2,2.9-0.3,4.2-0.8
				c0.5-0.2,1.2-0.4,1.5-0.8c0.3-0.4,0.3-0.8,0.2-1.3c-0.1-1.4-0.5-2.8-0.8-4.1c-0.7-2.8-1.5-5.5-2.2-8.2
				c-2.1-8.3-3.7-16.7-4.5-25.2c-0.7-7.9-0.6-15.9,0.1-23.8c0.4-4.5,1-8.9,1.7-13.4c0.4-2.3,0.8-4.5,1.2-6.8
				c0.4-1.9,0.8-3.8,1.7-5.5c1.1-2.1,3-3.1,5.1-3.9c2-0.8,3.9-1.7,5.8-2.7c3.6-1.9,7.1-4.2,10.4-6.7c7.1-5.2,14-10.8,21.4-15.5
				c7.8-4.9,15.9-9.2,24.1-13.4c2-1,4-2,6-3.1c0.1-0.1,0.7-0.3,0.6-0.6l-1.7-5.6c-0.5-1.5-0.7-3.6-1.8-4.7c-0.9-1-2.3-0.8-3.5-0.5
				c-1.8,0.5-3.5,1.3-5.1,2.1c-6.3,2.8-12.3,6.3-18.3,9.7c-6.1,3.4-12.2,6.9-18.8,9.3c-7,2.6-14.4,4-21.8,4.6
				c-7.5,0.7-15.1,0.7-22.7,0.8c-7.8,0.1-15.5,0.1-23.3-0.2c-7.9-0.4-15.8-1.1-23.5-2.7c-7.6-1.5-15-3.8-22.2-6.4
				c-15.9-5.7-31.9-11.8-46.9-19.7c-0.5-0.3-1.3,0-1.9,0.2C628.2,224.9,627,225.5,627.4,225.7"/>
		</g>
		<g class="st0">
			<defs>
				<rect id="SVGID_24_" y="-124.2" width="1000" height="1000"/>
			</defs>
			<clipPath id="SVGID_25_">
				<use xlink:href="#SVGID_24_"  style="overflow:visible;"/>
			</clipPath>
			<path class="st17" d="M705.4,186.2c-1.9-0.6-4-1.2-5.8-0.5c-1.9,0.7-3,3.3-1.6,4.6c-2.4-0.7-5.3,0.9-6,3.2
				c-0.7,2.4,0.9,5.2,3.3,5.8c-2.1,1.1-3.3,3.7-2.7,6c0.6,2.3,3,4,5.4,4c-0.5,0.5-0.5,1.5,0,2.1c0.4,0.6,1.2,1,1.9,1.2
				c1.7,0.5,3.6,0.5,5.1-0.3c1.6-0.8,2.7-2.4,2.8-4.1c4.3,2.7,10.5,2.2,14.3-1.2c-0.2,1.6,1.7,2.7,3.3,3c2.1,0.4,4.3,0.4,6.4-0.1
				c-1.6,1-1.4,3.4-0.1,4.7c1.3,1.3,3.1,1.8,4.9,2.2c-1.7,1.5-3.5,3.2-4,5.5c-0.5,2.2,0.9,5,3.2,5.1c-1,0.4-2,0.9-2.7,1.7
				c-0.7,0.8-1.2,1.9-0.8,2.9c0.2,0.6,0.7,1.1,1.3,1.4c2.6,1.8,6.6,1,8.4-1.6c3.4,1.7,7.6,1.5,10.8-0.3c1.7-1,3.2-2.7,2.8-4.6
				c-0.5-2.3-3.4-3-5.8-3.3c2.5-0.8,4.5-3.1,4.6-5.6c0.1-2.6-2.3-5.1-4.9-4.9c2.6-1,5.6-2.5,5.9-5.2c0.2-1.6-0.7-3.2-2-4.2
				c-1.3-1-2.8-1.7-4.4-2.2c2-1.9,1.4-5.5-0.7-7.2c-2.2-1.7-5.4-1.6-7.9-0.3c1.1-2.8-0.8-6.2-3.6-7.3c-2.8-1.2-6.2-0.5-8.7,1.2
				c0.2-1.5-0.7-3.1-2-4c-1.3-0.9-2.9-1.2-4.5-1.3c-3.3-0.1-7.1,1.3-8.3,4.3C711.2,184.2,708.6,184.5,705.4,186.2"/>
		</g>
		<g class="st0">
			<text transform="matrix(1 0 0 1 56.2505 185.5016)" class="st18"><tspan x="0" y="0" class="st19 st20 st21">alana barb</tspan><tspan x="688.7" y="0" class="st19 st20 st21">o</tspan><tspan x="769.5" y="0" class="st19 st20 st21">sa</tspan></text>
			<text transform="matrix(1 0 0 1 62.3271 312.4884)" class="st18"><tspan x="0" y="0" class="st19 st20 st21">alana barb</tspan><tspan x="688.7" y="0" class="st19 st20 st21">o</tspan><tspan x="769.5" y="0" class="st19 st20 st21">sa</tspan></text>
			<text transform="matrix(1 0 0 1 67.5356 430.5465)" class="st18"><tspan x="0" y="0" class="st19 st20 st21">alana barb</tspan><tspan x="688.7" y="0" class="st19 st20 st21">o</tspan><tspan x="769.5" y="0" class="st19 st20 st21">sa</tspan></text>
			<text transform="matrix(1 0 0 1 74.604 578.2428)" class="st18"><tspan x="0" y="0" class="st19 st20 st21">alana barb</tspan><tspan x="688.7" y="0" class="st19 st20 st21">o</tspan><tspan x="769.5" y="0" class="st19 st20 st21">sa</tspan></text>
		</g>
	</g>
	<g id="Camada_4">
	</g>
	<path class="st22" d="M685.7,299.7c-4.3-7.9-8.6-15.7-12.8-23.6c-0.7-1.4-1.5-2.7-2.5-3.8c-1.4-1.4-3.2-2.4-5.1-3.1
		c-6.4-2.6-13.3-3.4-20.2-4.2c-0.4,0-0.8-0.1-1.1,0.1c-0.3,0.2-0.4,0.6-0.4,0.9c-0.1,1.8,1.8,3.2,3.5,3.7c1.8,0.5,3.7,0.6,5.2,1.8
		c-7.3,1.6-15.2,0.3-21.5-3.7c-0.7-0.4-1.7-0.9-2.2-0.3c-0.2,0.2-0.3,0.5-0.3,0.8c-0.5,2.8,1.2,5.6,3.4,7.3c2.3,1.7,5,2.5,7.7,3.3
		c2.6,0.8,5.3,1.5,7.9,2.3c1.5,0.4,3,0.9,4.6,1.2c4.5,0.8,9.5,0.3,13.3,2.8c2.8,1.9,4.3,5,5.6,8.1c4,9.4,6.7,19.5,11.9,28.3
		c1.3,2.3,2.9,4.5,5,6c2.1,1.5,5,2.2,7.5,1.2c3.4-1.4,4.8-5.3,5.8-8.8c3.1-11.2,5.1-23.1,2.5-34.4c-0.6-2.8-1.6-5.6-3.6-7.6
		c-2.8-2.8-12.1-6.7-12.4-0.3C687.1,285.1,687.4,292.2,685.7,299.7z"/>
	<path class="st22" d="M770.6,299.7c4.3-7.9,8.6-15.7,12.8-23.6c0.7-1.4,1.5-2.7,2.5-3.8c1.4-1.4,3.2-2.4,5.1-3.1
		c6.4-2.6,13.3-3.4,20.2-4.2c0.4,0,0.8-0.1,1.1,0.1c0.3,0.2,0.4,0.6,0.4,0.9c0.1,1.8-1.8,3.2-3.5,3.7c-1.8,0.5-3.7,0.6-5.2,1.8
		c7.3,1.6,15.2,0.3,21.5-3.7c0.7-0.4,1.7-0.9,2.2-0.3c0.2,0.2,0.3,0.5,0.3,0.8c0.5,2.8-1.2,5.6-3.4,7.3c-2.3,1.7-5,2.5-7.7,3.3
		c-2.6,0.8-5.3,1.5-7.9,2.3c-1.5,0.4-3,0.9-4.6,1.2c-4.5,0.8-9.5,0.3-13.3,2.8c-2.8,1.9-4.3,5-5.6,8.1c-4,9.4-6.7,19.5-11.9,28.3
		c-1.3,2.3-2.9,4.5-5,6c-2.1,1.5-5,2.2-7.5,1.2c-3.4-1.4-4.8-5.3-5.8-8.8c-3.1-11.2-5.1-23.1-2.5-34.4c0.6-2.8,1.6-5.6,3.6-7.6
		c2.8-2.8,12.1-6.7,12.4-0.3C769.2,285.1,768.9,292.2,770.6,299.7z"/>
	<g id="Camada_3">
		<path class="st23" d="M727.5,256.5c-6.3,0.2-12.1-2.8-18.1-4.6s-13.3-2.2-17.8,2.1c-1.8,1.8-3,4.2-4.1,6.5
			c-2.1,4.5-4.3,9-6.4,13.6c-0.3,0.6-0.5,1.3-0.2,1.8c0.2,0.3,0.6,0.4,0.9,0.6c5.7,2.1,11.4,4.3,17.1,6.4c1.4,9.9,0.6,20-0.4,29.9
			c-1.1,10.5-2.5,21-3.9,31.4c-1,7.3-1.4,14.9-2.3,22.1c-0.1,0.9,3.3,5.3,3.6,6.2c0.7,2.1-0.8-1,1.4-0.7c21.1,2.8,36.1,4.6,57.4,4
			c3-0.1,2.7-3.3,5.2-5c1.9-3,2.9-8.4,1.8-14.7c-1.1-6.3-1.3-12.7-2.3-18.9c-0.7-4.2-1.7-8.3-2.4-12.6c-1.2-7.5-1.2-15.1-1.1-22.7
			c0-6.2,0-12.4,0.1-18.5c5.1,0.6,10.3-0.1,15-2.2c-1.7-5.4-3.4-10.7-5.2-16.1c-0.6-1.8-1.2-3.6-2.3-5c-3.3-4.2-11.6-6.2-16.8-6.8
			C740.3,252.7,734.1,256.3,727.5,256.5z"/>
	</g>
	<g id="Camada_5">
		<path class="st24" d="M770.3,253.2c-17.3,3.6-35.1,4.5-52.6,2.5c-5.4-0.6-11.1-1.4-16.2,0.6c-4.8,1.9-8.3,6-10.5,10.7
			c-2.1,4.6-3,9.8-3.6,14.8c-0.8,6.5-1.3,13-1.5,19.6c-0.2,5.7-0.3,12-4,16.4c-5.1-9.1-9.3-18.8-12.5-28.7c-5.2,2.9-11.1,4.5-17,4.6
			c0.5,4.6,1.9,9.1,3.5,13.5c2.8,8.1,6.6,16.4,13.6,21.4c7,5,18.1,5,23.1-1.9c2.6-3.6,3.2-8.6,6.4-11.8c0.4,18.7-2,37.4-7.1,55.3
			c-0.3,1.2-0.6,2.6,0.2,3.5c0.6,0.6,1.5,0.8,2.3,0.9c20.5,2.8,41.2,3.9,61.9,3.2c5.3-0.2,11.7-1.1,14.1-5.9
			c-4.9-17.2-6.7-35.2-5.2-53c2.3,5.5,5.3,10.7,8.7,15.5c3.2,4.5,7.3,9,12.8,10.1c5.7,1.1,11.7-1.9,15.5-6.3
			c3.9-4.4,6.1-9.9,8.3-15.3c2.6-6.4,5.1-12.8,7.7-19.2c-6,0.5-12.1-0.8-17.3-3.8c-2.6,6.9-5.6,14-11,19c-1.1,1.1-2.5,2.1-4,2.1
			c-2.2,0.1-4.1-1.7-4.9-3.8c-0.8-2.1-0.7-4.3-0.6-6.5c0.4-14.2-1.9-28.5-6.8-41.8c-2.4-6.6-6.5-13.9-13.4-15.1"/>
	</g>
	<g id="pernasd">
		<polyline class="st22" points="697.3,504.3 697.3,547.8 717.4,547.8 717.4,502.7 696,502.7 		"/>
		<polyline class="st22" points="742.1,502.4 742.1,545.8 762.2,545.8 762.2,500.8 740.8,500.8 		"/>
	</g>
	<g id="sapatos">
		<defs>
			<rect id="SVGID_26_" y="-124.2" width="1000" height="1000"/>
		</defs>
		<clipPath id="SVGID_27_">
			<use xlink:href="#SVGID_26_"  style="overflow:visible;"/>
		</clipPath>
		<path class="st25" d="M762.2,542.1c0.5,3-0.9,2.2,1.2,3.9c6,4.8,13.8,6.6,20.1,11c1.4,1,2.9,2,4,3.3c1.1,1.3,1.8,3.1,1.6,4.8
			c-0.1,0.7-0.5,1.5-1.1,1.9c-0.5,0.3-1.2,0.3-1.8,0.3c-13.8,0-27.6,0-41.4,0c-1.3,0-2.7-0.1-3.4-1.1c-0.4-0.6-0.5-1.4-0.5-2.2
			c-0.2-6.3-0.3-12.6,0.5-18.8c0.1-0.8,0.3-1.7,0.9-2.3c0.7-0.7,1.8-0.7,2.8-0.7c3,0,6.1-0.1,9.1-0.1"/>
		<path class="st25" d="M697.5,542.3c-0.5,3,0.9,2.2-1.2,3.9c-6,4.8-13.8,6.6-20.1,11c-1.4,1-2.9,2-4,3.3c-1.1,1.3-1.8,3.1-1.6,4.8
			c0.1,0.7,0.5,1.5,1.1,1.9c0.5,0.3,1.2,0.3,1.8,0.3c13.8,0,27.6,0,41.4,0c1.3,0,2.7-0.1,3.4-1.1c0.4-0.6,0.5-1.4,0.5-2.2
			c0.2-6.3,0.3-12.6-0.5-18.8c-0.1-0.8-0.3-1.7-0.9-2.3c-0.7-0.7-1.8-0.7-2.8-0.7c-3,0-6.1-0.1-9.1-0.1"/>
	</g>
	<path id="calça" class="st26" d="M692.4,365.4l2.2,148.3c0-0.8,27.7,0.5,27.7-0.6c0-2.6,6-105.8,6-105.8l7.1,106l28.8,0
		l-2.2-147.9H692.4z"/>
</g>
<g id="Camada_6">
</g>
<g id="Camada_2">
	<text transform="matrix(1.0856 -0.608 0.4886 0.8725 207.9071 237.4071)" class="st27 st28 st29">??</text>
</g>
</svg>
