<?xml version="1.0" encoding="utf-8"?>
<!-- Generator: Adobe Illustrator 25.2.1, SVG Export Plug-In . SVG Version: 6.00 Build 0)  -->
<svg version="1.1" xmlns="http://www.w3.org/2000/svg" xmlns:xlink="http://www.w3.org/1999/xlink" x="0px" y="0px"
	 viewBox="0 0 1000 1000" style="enable-background:new 0 0 1000 1000;" xml:space="preserve">
<style type="text/css">
	.st0{display:none;}
	.st1{fill:#969BCE;}
	.st2{fill:#969BCE;stroke:#969BCD;stroke-width:9;stroke-linecap:round;stroke-miterlimit:10;}
	.st3{fill:url(#SVGID_1_);}
	.st4{fill:url(#SVGID_2_);}
	.st5{fill:url(#SVGID_3_);}
	.st6{fill:#DDDFEC;stroke:#493662;stroke-width:3;stroke-linecap:round;stroke-linejoin:round;stroke-miterlimit:10;}
	.st7{fill:#F4EBB9;}
	.st8{fill:#8E1C1C;}
	.st9{fill:#E0E1EF;}
	.st10{fill:#483365;}
	.st11{fill:#8E181D;}
	.st12{fill:#805248;}
	.st13{fill:#213A8F;}
	.st14{fill:#B3472D;}
	.st15{fill:#010202;}
	.st16{opacity:0.08;fill:#575756;}
	.st17{font-family:'Montserrat-Bold';}
	.st18{font-size:124.0105px;}
</style>
<g id="Camada_1" class="st0">
</g>
<g id="Camada_3" class="st0">
</g>
<g id="Camada_2" class="st0">
</g>
<g id="Camada_18">
</g>
<g id="Camada_5">
	<g id="Camada_8">
	</g>
	<g id="sapato">
	</g>
</g>
<g id="bg">
	<g>
		<path class="st1" d="M335.99,697.27C281.76,662.4,226.4,626.51,188.4,576.9c-58.7-76.64-67.27-182.82-21.5-266.48
			c10.62-19.42,24.13-37.85,42.16-52.01c44.78-35.16,107.12-43.32,166.21-43.95c25.82-0.27,53.77,4.35,78.88,9.82
			c30.13,6.56,57.54,20.73,83.81,35.69c36.43,20.76,71.99,43.74,99.83,73.57c19.54,20.94,35.18,45.14,57.99,63.11
			c57.18,45.06,150.36,44.41,195.78,99.49c27.13,32.9,29.34,77.2,27.94,118.34c-0.99,29.03-5.54,62.04-31.53,78.84"/>
	</g>
	<line class="st2" x1="86.03" y1="696.73" x2="967.19" y2="696.73"/>
</g>
<g id="Camada_17">
	<g>
		<linearGradient id="SVGID_1_" gradientUnits="userSpaceOnUse" x1="8.877" y1="496.8796" x2="408.2009" y2="496.8796">
			<stop  offset="0" style="stop-color:#7EAC8A"/>
			<stop  offset="1" style="stop-color:#B2BA83"/>
		</linearGradient>
		<path class="st3" d="M241.34,339.86c-20.23,33.18-44.94,63.59-73.24,90.13c-3.26,3.06-7.36,6.29-11.7,5.23
			c-4.82-1.18-6.82-6.82-8.05-11.65c-4.21-16.54-8.41-33.07-12.62-49.61c-3.81-14.97-7.69-30.13-15.18-43.61
			c-7.49-13.49-19.14-25.34-33.88-29.66s-32.6,0.46-40.75,13.55c-5.55,8.91-6.03,20.08-5.15,30.55
			c3.95,47.07,31.3,88.62,44.15,134.06c1.59,5.62,2.61,12.56-1.66,16.51c-3.97,3.67-10.27,2.55-15.35,0.73
			c-8.48-3.05-16.52-7.44-25.29-9.5c-8.77-2.06-18.88-1.36-25.53,4.75c-5.5,5.06-7.64,12.88-8.11,20.36
			c-1.01,16.23,4.96,32.77,16.08,44.57c10.24,10.86,24.09,17.4,37.59,23.69c27.95,13.02,55.9,26.04,83.85,39.06
			c3.31,1.54,6.77,3.21,8.83,6.24c4.81,7.07-1.27,17.28-9.27,20.22c-8,2.94-16.82,1.14-25.3,0.36s-18.11-0.02-23.75,6.4
			c-7.82,8.91-2.86,23.97,6.76,30.86s22.17,7.14,33.79,9.31c24.82,4.64,194.81,0.41,218.19,1.39c32.29-12.85-7.06,1.38,13.29-5.59
			c2.54-0.87,37.84-60.98,39.13-63.34c1.25-2.29-93.78,5.57-94.18,2.99c-4.66-30.12-19.98-20.31-8.56-48.54s25.65-55.54,32.74-85.18
			c2.95-12.33,4.21-26.64-3.76-36.48c-7.6-9.39-21.82-11.36-33.05-7s-19.77,13.85-26.1,24.15S264.47,496.43,258.6,507
			c-5.88,10.58-16.56,21.67-28.05,18.04c-7.78-2.46-12.21-11.26-12.12-19.47c0.09-8.21,3.73-15.92,7.59-23.14
			C243.9,449,269,417.16,271.38,379.28c0.59-9.44-0.39-19.3-5.07-27.51s-13.63-14.41-23.01-13.72"/>
	</g>
	<g>
		
			<linearGradient id="SVGID_2_" gradientUnits="userSpaceOnUse" x1="610.0347" y1="375.2076" x2="1009.3463" y2="375.2076" gradientTransform="matrix(-1 0 0 1 1455.7584 0)">
			<stop  offset="0" style="stop-color:#7EAC8A"/>
			<stop  offset="1" style="stop-color:#B2BA83"/>
		</linearGradient>
		<path class="st4" d="M613.77,217.54c20.23,33.18,44.43,64.24,72.73,90.78c3.26,3.06,7.36,6.29,11.7,5.23
			c4.82-1.18,6.82-6.82,8.05-11.65c4.21-16.54,8.41-33.07,12.62-49.61c3.81-14.97,7.69-30.13,15.18-43.61
			c7.49-13.49,19.14-25.34,33.88-29.66s32.6,0.46,40.75,13.55c5.55,8.91,6.03,20.08,5.15,30.55c-3.95,47.07-31.3,88.62-44.15,134.06
			c-1.59,5.62-2.61,12.56,1.66,16.51c3.97,3.67,10.27,2.55,15.35,0.73c8.48-3.05,16.52-7.44,25.29-9.5
			c8.77-2.06,18.88-1.36,25.53,4.75c5.5,5.06,7.64,12.88,8.11,20.36c1.01,16.23-4.96,32.77-16.08,44.57
			c-10.24,10.86-24.09,17.4-37.59,23.69c-27.95,13.02-55.9,26.04-83.85,39.06c-3.31,1.54-6.77,3.21-8.83,6.24
			c-4.81,7.07,1.27,17.28,9.27,20.22c8,2.94,16.82,1.14,25.3,0.36s18.11-0.02,23.75,6.4c7.82,8.91,2.86,23.97-6.76,30.86
			s-22.17,7.14-33.79,9.31c-24.82,4.64-194.81,0.41-218.19,1.39c-24.14-8.84,10.85,3.25-13.29-5.59c-2.52-0.92-37.83,4.8-39.12,2.44
			c-1.25-2.29,117.87-19.81,118.27-22.4c4.66-30.12-4.12-60.7-15.54-88.93s-25.65-55.54-32.74-85.18
			c-2.95-12.33-4.21-26.64,3.76-36.48c7.6-9.39,21.82-11.36,33.05-7c11.23,4.36,19.77,13.85,26.1,24.15
			c6.32,10.3,10.82,21.62,16.69,32.19c5.88,10.58,16.56,21.67,28.05,18.04c7.78-2.46,12.21-11.26,12.12-19.47
			s-3.73-15.92-7.59-23.14c-17.88-33.43-42.98-65.26-45.36-103.15c-0.59-9.44,0.39-19.3,5.07-27.51
			c4.67-8.21,14.68-17.49,22.83-14.65"/>
	</g>
	<g>
		<linearGradient id="SVGID_3_" gradientUnits="userSpaceOnUse" x1="715.379" y1="502.0016" x2="962.6421" y2="502.0016">
			<stop  offset="0" style="stop-color:#B2BA83"/>
			<stop  offset="1" style="stop-color:#5B7B81"/>
		</linearGradient>
		<path class="st5" d="M939.83,456.76c2.64-23.24,7.91-46.18,15.7-68.22c5-14.16,10.95-30.29,3.82-43.5
			c-7.3-13.5-26.56-17.08-40.16-10.09c-13.6,6.99-21.76,21.88-24.68,36.97c-0.73,3.76-1.26,7.76-3.59,10.8
			c-4.69,6.13-14.06,5.43-21.41,3.13c-7.35-2.29-15.29-5.57-22.42-2.67c-7.05,2.87-10.65,10.98-11.24,18.61
			c-0.59,7.63,1.1,15.24,1.21,22.89c0.23,15.84-6.24,30.92-12.59,45.42c-3.56,8.12-7.19,16.37-12.85,23.17
			c-5.66,6.81-13.74,12.1-22.56,12.35c-9.64,0.27-21.51-4.61-27.54,2.96c-1.5,1.88-2.26,4.25-2.7,6.61
			c-2.8,14.92,5.87,29.85,4.93,45.01c-1.07,17.17-13.88,30.84-23.52,45.05c-9.2,13.57-15.95,28.82-19.82,44.78
			c-4.17,17.2,4.05-22.39-5.02-7.22c3.96-9.24,8.7,16.81,18.56,15.16c9.87-1.65,12.28,6.07,21.98,8.53
			c11.04,2.8,12.55,1.79,23.12,6.05c-0.46-16.19,12.08-8.53,20.66-22.24c8.78-14.03,24.92-21.36,40.5-26.74
			c15.58-5.38,32.09-9.87,44.57-20.69c12.48-10.82,19.38-30.44,10.34-44.29c-4.97-7.61-14.07-12.7-16.24-21.54
			c-2.32-9.46,4.65-18.92,12.91-24.02c8.26-5.1,17.95-7.44,26.3-12.39c16.83-9.99,26.38-31.05,22.85-50.38"/>
	</g>
</g>
<g id="Camada_13">
	<polygon class="st6" points="230.37,570.24 180.12,675.36 333.37,646.62 492.48,675.36 638.19,646.62 788.93,675.36 739.52,570.24 
		608.88,548.07 485.89,580.1 366.03,548.07 	"/>
</g>
<g id="Camada_14">
	<polygon class="st7" points="222,591.01 283.19,563.23 304.35,559.63 260.89,590.06 314.01,648.62 292.86,652.67 	"/>
	<polygon class="st7" points="197.14,643.11 293.42,652.57 278.74,655.36 193.09,651.68 	"/>
	<polygon class="st7" points="187.06,664.35 212.56,667.73 226.3,665.18 190.35,657.43 	"/>
	<polygon class="st7" points="333.97,554.75 382.78,591.05 370.89,651.96 401.41,657.37 397.77,558.14 365.89,549.59 	"/>
	<polygon class="st7" points="437.29,568.63 455.36,632.66 516.86,628.28 509.99,670.33 559.02,660.72 538.74,567.9 516.62,573.65 
		519.33,616.78 476.01,616.78 456.81,573.72 	"/>
	<polygon class="st7" points="585.81,555.56 766.6,627.86 749.28,591 599.7,551.91 590.17,554.42 	"/>
	<polygon class="st7" points="620.19,648.83 640.22,554.77 671.87,560.03 631.44,646.85 	"/>
</g>
<g id="map">
	<path class="st8" d="M357.84,383.01c0,0,1.55-132.22,126.22-122.91s129.32,115.33,129.32,115.33s3.45,54.11-24.19,89.97
		L483.96,611.21l-94.26-130.3C389.7,480.92,356.73,424.8,357.84,383.01z"/>
	<ellipse class="st9" cx="484.11" cy="383.01" rx="66.2" ry="64.05"/>
	<path class="st8" d="M355.57,307.65L355.57,307.65c-1.47,2.14-4.43,2.71-6.62,1.27l-27.62-18.21c-2.19-1.44-2.77-4.35-1.3-6.49v0
		c1.47-2.14,4.43-2.71,6.62-1.27l27.62,18.21C356.46,302.6,357.04,305.5,355.57,307.65z"/>
	<path class="st8" d="M355.31,281.51L355.31,281.51c-1.47,2.14-4.43,2.71-6.62,1.27l-27.62-18.21c-2.19-1.44-2.77-4.35-1.3-6.49l0,0
		c1.47-2.14,4.43-2.71,6.62-1.27l27.62,18.21C356.2,276.46,356.78,279.37,355.31,281.51z"/>
	<path class="st8" d="M383.43,271.57L383.43,271.57c-1.47,2.14-4.43,2.71-6.62,1.27l-27.62-18.21c-2.19-1.44-2.77-4.35-1.3-6.49l0,0
		c1.47-2.14,4.43-2.71,6.62-1.27l27.62,18.21C384.32,266.52,384.9,269.43,383.43,271.57z"/>
</g>
<g id="Lupa">
	
		<ellipse transform="matrix(0.1273 -0.9919 0.9919 0.1273 198.4774 946.3773)" class="st10" cx="637.06" cy="360.4" rx="17.83" ry="12.36"/>
	
		<ellipse transform="matrix(0.126 -0.992 0.992 0.126 198.9222 946.4681)" class="st9" cx="636.6" cy="360.34" rx="15.7" ry="9.79"/>
	<g>
		<path class="st10" d="M633.38,376.58c-0.26,6.13-2.47,12.03-3.28,18.12c-0.07,0.51-0.1,1.1,0.25,1.48c0.19,0.2,0.45,0.31,0.71,0.4
			c0.97,0.35,1.97,0.61,2.98,0.77c0.09,0.02,0.19,0.03,0.28-0.01c0.19-0.08,0.21-0.32,0.22-0.52c0.06-1.67,0.66-3.27,1.24-4.84
			c1.83-4.95,3.56-10.1,3.25-15.36c-1.68,0.2-3.36,0.39-5.04,0.59c-0.14,0.02-0.3,0.04-0.38,0.15c-0.06,0.09-0.07,0.2-0.07,0.31
			c0,0.3,0,0.59,0,0.89"/>
		<g>
			<path class="st10" d="M631.91,376.68c-0.16,3.33-0.86,6.59-1.61,9.83c-0.38,1.62-0.76,3.25-1.09,4.88
				c-0.28,1.37-0.9,3.23-0.57,4.64c0.34,1.47,2.2,1.8,3.44,2.1c1.27,0.31,3.27,0.72,3.84-0.92c0.24-0.68,0.17-1.49,0.33-2.2
				c0.21-0.91,0.54-1.79,0.86-2.66c0.58-1.58,1.16-3.16,1.66-4.76c1.13-3.59,1.92-7.28,1.74-11.07c-0.03-0.7-0.67-1.07-1.35-0.99
				c-1.62,0.19-3.24,0.35-4.85,0.57c-0.66,0.09-1.3,0.2-1.79,0.7c-0.51,0.52-0.44,1.19-0.44,1.87c0,1.55,2.94,1.15,2.94-0.2
				c0-0.41-0.02-0.8,0.07-1.19c-0.17,0.26-0.33,0.53-0.5,0.79c-0.71,0.47,0.16,0.15,0.46,0.11c0.45-0.05,0.91-0.11,1.36-0.16
				c0.84-0.1,1.68-0.2,2.52-0.29c-0.45-0.33-0.9-0.66-1.35-0.99c0.17,3.58-0.52,7.09-1.58,10.5c-0.52,1.67-1.12,3.31-1.73,4.95
				c-0.3,0.82-0.59,1.64-0.81,2.49c-0.1,0.37-0.19,0.75-0.25,1.13c-0.04,0.25-0.08,0.51-0.1,0.76c-0.11,0.48-0.03,0.51,0.26,0.11
				c0.36-0.13,0.73-0.27,1.09-0.4c-0.46,0.01-1.01-0.19-1.45-0.31c-0.3-0.08-1.11-0.2-1.32-0.44c-0.44-0.5,0.03-1.85,0.13-2.42
				c0.31-1.83,0.72-3.65,1.14-5.46c0.85-3.68,1.73-7.35,1.91-11.14C634.93,374.94,631.98,375.32,631.91,376.68L631.91,376.68z"/>
		</g>
	</g>
</g>
<g id="sapato_1_">
	<g>
		<path class="st11" d="M657.23,668.39c-2.51,2.1-5.92,2.73-9.07,3.7c-7.35,2.26-13.79,6.65-20.11,10.97
			c-1.44,0.99-2.89,1.99-4,3.32c-1.11,1.33-1.84,3.07-1.57,4.77c0.11,0.73,0.45,1.48,1.1,1.86c0.53,0.3,1.18,0.31,1.79,0.31
			c13.79,0.01,27.58,0.01,41.37,0.02c1.26,0,2.72-0.1,3.44-1.11c0.44-0.62,0.48-1.42,0.49-2.17c0.16-6.28,0.33-12.59-0.54-18.81
			c-0.12-0.83-0.28-1.72-0.9-2.31c-0.71-0.67-1.81-0.73-2.79-0.74c-3.04-0.04-6.09-0.09-9.13-0.13"/>
	</g>
	<g>
		<path class="st11" d="M795.27,648.35c1.55,2.86,1.44,6.26,1.72,9.48c0.66,7.53,3.63,14.65,6.57,21.63
			c0.67,1.59,1.35,3.2,2.44,4.55s2.66,2.42,4.41,2.53c0.75,0.05,1.57-0.11,2.09-0.65c0.42-0.44,0.57-1.06,0.7-1.65
			c2.99-13.2,5.98-26.4,8.97-39.61c0.27-1.2,0.49-2.62-0.36-3.53c-0.52-0.55-1.31-0.76-2.05-0.94c-6.21-1.52-12.46-3.04-18.84-3.55
			c-0.85-0.07-1.78-0.1-2.49,0.36c-0.82,0.54-1.11,1.57-1.34,2.52c-0.7,2.9-1.41,5.81-2.11,8.71"/>
	</g>
</g>
<g id="Corpo">
	<g>
		<path class="st12" d="M700.67,329.67c2.49,5.1,5.01,10.3,5.89,15.89c0.44,2.84,0.45,5.73,0.9,8.57
			c0.83,5.26,3.19,10.28,6.73,14.32c0.81,0.93,1.71,1.82,2.83,2.36c1.18,0.57,2.53,0.71,3.85,0.74c1.9,0.04,3.86-0.15,5.58-0.95
			c2.71-1.27,4.47-3.92,5.64-6.62s1.89-5.6,3.25-8.23c0.34-0.65,0.73-1.31,1.35-1.73c0.77-0.53,1.77-0.6,2.63-0.99
			c1.66-0.75,2.52-2.54,3.15-4.22c0.39-1.05,0.75-2.17,0.52-3.26c-0.49-2.25-3.12-3.24-5.37-3.87c-1.07-0.3-2.17-0.63-3-1.35
			c-1.43-1.25-1.67-3.31-2.03-5.15c-0.42-2.13-1.12-4.2-2.08-6.15c-0.34-0.68-0.71-1.36-1.27-1.88c-0.8-0.75-1.89-1.1-2.95-1.37
			c-7.73-1.96-15.89-0.55-23.72,0.97c-0.28,0.05-0.57,0.12-0.79,0.3c-0.75,0.64,0.06,1.99-0.52,2.77"/>
	</g>
	<g>
		<path class="st12" d="M719.03,369.06c0.27,2.24,0.56,4.53,1.6,6.53c0.78,1.49,1.98,2.84,2.18,4.51c0.05,0.37,0.05,0.78,0.3,1.07
			c0.26,0.31,0.72,0.37,1.13,0.41c3.25,0.29,6.52,0.31,9.78,0.05c0.14-0.01,0.28-0.03,0.38-0.12c0.14-0.13,0.12-0.35,0.09-0.54
			c-0.91-5.56-2.6-10.99-4.99-16.11c-0.15-0.32-0.31-0.65-0.61-0.85c-0.25-0.17-0.57-0.22-0.87-0.25c-2.08-0.2-4.16,0.34-6.18,0.87
			c-0.97,0.25-2,0.54-2.69,1.26c-0.69,0.72-0.85,2.02-0.05,2.63"/>
	</g>
	<g>
		<path class="st12" d="M817.99,454.67c4.21,2.82,8.43,5.64,12.64,8.45c0.62,0.41,1.25,0.84,1.72,1.42c0.5,0.62,0.78,1.38,1.06,2.12
			c1.06,2.8,2.24,5.56,3.55,8.25c0.59,1.23,1.27,2.5,2.45,3.21c0.81-0.29,0.77-1.41,0.59-2.23c-0.44-1.99-0.89-3.99-1.33-5.98
			c0.79,2.44,2.84,4.45,5.33,5.23c0.33,0.1,0.7,0.18,1,0.03c0.5-0.25,0.52-0.94,0.82-1.4c0.68-1.07,2.61-0.81,3.19-1.92
			c0.13-0.26,0.17-0.55,0.32-0.8c0.33-0.58,1.1-0.74,1.66-1.13c1.17-0.83,1.16-2.65,0.36-3.84c-0.8-1.19-2.14-1.89-3.42-2.54
			c-2.83-1.44-5.67-2.89-8.5-4.33c-5.82-2.96-10.52-8.03-16.65-10.3c-0.37-0.14-1.89,1.81-2.29,1.81c-1.49-0.02-2.35,1.87-1.87,3.26
			c0.48,1.38,1.78,2.3,3,3.13"/>
	</g>
	<g>
		<path class="st12" d="M627.33,384.13c0.74-3.05,4.43-4.72,7.58-4.2c3.15,0.52,5.77,2.67,7.88,5.02c2.82,3.15,5.02,6.77,7.2,10.37
			c1.29,2.12,2.57,4.24,3.86,6.36c0.4,0.65,0.8,1.34,0.85,2.1c0.1,1.72-1.69,2.99-3.41,3.38c-2.82,0.64-5.84-0.17-8.3-1.68
			c-2.46-1.51-4.43-3.66-6.25-5.88c-2.9-3.55-5.46-7.37-7.66-11.38c-0.75-1.37-1.48-2.84-1.46-4.4"/>
	</g>
	<g>
		<path class="st12" d="M734.08,604.93c0.63,4.32,3.32,8.07,6.14,11.44c15.51,18.52,32.96,30.05,56.29,37.19
			c0.78,0.24-0.73,0.35,0,0c0.59-0.28,1.6-2.28,1.92-2.84c2.85-4.9,3.81-8.69,6.66-13.6c-23.7-6.54-36.59-20.37-49.89-40.7
			c-0.61-0.93-1.35-1.96-2.47-2.07c-0.68-0.06-1.33,0.24-1.94,0.55c-5.32,2.69-10.33,5.96-14.92,9.73c-0.44,0.36-0.9,0.78-0.96,1.34
			c-0.05,0.5,0.24,0.95,0.52,1.37c1.18,1.75,2.36,3.5,3.54,5.25"/>
	</g>
	<g>
		<path class="st12" d="M676.26,596.14c-3.86,2.17-6.43,6-8.59,9.81c-11.84,20.96-16.35,41.12-14.54,65.02c0.06,0.79-0.6-0.54,0,0
			c0.48,0.43,2.75,0.61,3.4,0.7c5.7,0.79,8.02,0.08,13.72,0.87c-2.53-24.02,7.47-40.66,21.84-60.27c0.66-0.9,1.36-1.96,1.05-3.02
			c-0.19-0.64-0.72-1.13-1.24-1.57c-4.51-3.86-9.46-7.22-14.72-10.02c-0.5-0.27-1.07-0.54-1.62-0.38c-0.49,0.14-0.82,0.57-1.11,0.98
			c-1.23,1.72-2.45,3.44-3.68,5.16"/>
	</g>
</g>
<g id="calça">
	<g>
		<path class="st13" d="M691.9,491.61c-4.55,35.52-24.18,67.44-28.63,102.97c-0.08,0.67-0.16,1.36,0.02,2.01
			c0.45,1.59,2.2,2.39,3.76,2.99c8.07,3.09,16.13,6.19,24.2,9.28c0.59,0.23,1.2,0.45,1.83,0.4c1.19-0.1,2.04-1.14,2.73-2.09
			c9.38-12.88,18.31-34.51,27.2-47.72c0.47,10.51,1.45,29.84,3.9,40.08c2.46,10.24,6.16,17.8,13.66,25.33
			c4.53-10,17.07-10.01,25.16-17.55c0.73-0.68-1.41-2.98-1.64-3.95c-0.51-2.15-0.89-4.09-1.07-4.99c-2.74-13.15,1-24.85,2.45-38.2
			c1.18-10.84,5.67-22.3,6.25-33.19c0.58-10.89,2.74-23.36-3.63-32.3c-0.74-1.03-7.28-0.29-8.45-0.81
			c-1.04-0.47-2.23-0.49-3.38-0.49c-19.29-0.13-38.58-0.25-57.87-0.38"/>
	</g>
</g>
<g id="Camada_19">
	<g>
		<path class="st13" d="M677.36,547.54c-5.53,9.05-8.08,19.56-10.56,29.88c-2.07,8.64-4.15,17.29-6.22,25.93
			c-4.4,18.36-8.83,37-8.05,55.86c0.05,1.13-0.45,2.49,0.44,3.18c0.69,0.53,2.26,0.46,3.13,0.47c4.43,0.01,9.44,0.28,13.86,0.29
			c0.31-3.19,0.57-6.28,1.2-9.42c0.72-3.6,1.43-7.31,3.17-10.54c7.56-14.05,16.75-27.34,24.31-41.39c1.21-2.26,0.84-5.49,0.4-8.01
			c-0.23-1.34-0.92-2.55-1.64-3.7c-4.42-7.06-10.38-13.15-17.34-17.72c-4.11-2.69-6.44-3.88-8.19-8.47"/>
	</g>
	<g>
		<path class="st13" d="M734.77,584.51c6.14,8.65-6.23,6.99,2.27,13.34c7.13,5.31-4.28,19.15,1.88,25.31
			c13.35,13.35,30.49,20.75,48.13,27.47c1.05,0.4,4.13,2.11,5.12,1.56c0.76-0.42,1.6-3.32,1.94-4.12c1.76-4.06,3.03-8.82,4.78-12.88
			c-2.81-1.54-6.41-2.81-9.05-4.63c-3.03-2.08-6.05-2.56-8.34-5.43c-9.93-12.49-20.18-23.23-30.11-35.71
			c-1.59-2.01-3.38-4.13-5.87-4.73c-1.32-0.32-2.71-0.16-4.05,0.05c-8.23,1.27,7.18,1.69,0.23,6.28c-4.1,2.71,0.61,6.4-4.29,6.19"/>
	</g>
</g>
<g id="Rouoa">
	<g>
		<path class="st14" d="M637.78,404.58c4.65-2.98,9.29-5.96,13.94-8.95c0.63-0.4,1.36-0.83,2.09-0.64c0.65,0.17,1.08,0.77,1.45,1.32
			c2.86,4.25,6.31,8.13,10.21,11.5c0.46,0.4,0.95,0.8,1.54,0.95c1.26,0.32,2.48-0.56,3.47-1.39c4.5-3.75,9.01-7.5,13.51-11.26
			c10.39-8.66,21.64-17.69,35.19-19.21c1-0.11,2.06-0.17,2.96,0.26c1.25,0.6,1.88,1.96,2.89,2.89c1.6,1.47,4.27,1.68,6.09,0.48
			c1.82-1.21,2.63-3.7,1.83-5.72c5.39-1.62,11.32-0.59,16.43,1.72c5.11,2.32,9.54,5.85,13.84,9.42c16.43,13.68,31.72,28.61,47,43.52
			c6.42,6.26,12.83,12.52,19.25,18.78c1.02,1,2.09,2.07,2.38,3.46c0.41,1.97-0.87,3.86-2.09,5.48c-1.24,1.65-2.48,3.3-3.72,4.95
			c-0.76,1.02-1.67,2.12-2.95,2.25c-1.03,0.11-1.99-0.45-2.87-0.98c-16.97-10.38-33.93-20.75-50.9-31.13
			c-2.62-1.6-5.36-3.33-6.75-6.03c0.02,10.52,0.04,21.05,0.07,31.57c0.01,6.76,0.03,13.57,1.42,20.19
			c1.61,7.7,5.02,14.93,6.94,22.55c0.37,1.47,0.55,3.31-0.69,4.2c-0.74,0.53-1.73,0.51-2.64,0.47c-23.13-1.06-46.27-2.12-69.4-3.18
			c-1.79-0.08-3.72-0.22-5.08-1.36c-1.93-1.63-1.88-4.52-1.67-7.01c2.18-25.87,4.56-52.2-1.18-77.54
			c-5.32,7.78-14.83,11.54-23.77,14.86c-2.42,0.9-5.03,1.81-7.54,1.19c-2.76-0.68-4.7-3.05-6.39-5.3
			c-5.51-7.33-10.6-14.96-15.25-22.85"/>
	</g>
</g>
<g id="Cabelo">
	<g>
		<path class="st15" d="M707.13,310.41c-1.89-0.58-3.96-1.15-5.81-0.46s-3.01,3.28-1.6,4.64c-2.43-0.68-5.27,0.87-5.95,3.25
			c-0.69,2.38,0.91,5.16,3.34,5.82c-2.13,1.11-3.31,3.75-2.69,6.04s2.96,4.01,5.38,3.95c-0.53,0.55-0.47,1.48-0.03,2.1
			c0.44,0.62,1.17,0.98,1.91,1.22c1.67,0.54,3.57,0.52,5.14-0.26s2.75-2.38,2.79-4.11c4.31,2.73,10.49,2.2,14.25-1.22
			c-0.17,1.61,1.7,2.66,3.31,2.99c2.1,0.43,4.29,0.39,6.37-0.09c-1.56,0.96-1.39,3.42-0.14,4.74c1.25,1.33,3.15,1.81,4.94,2.24
			c-1.74,1.53-3.52,3.23-4.05,5.46c-0.53,2.23,0.85,5.02,3.18,5.15c-0.98,0.44-1.98,0.9-2.73,1.66c-0.75,0.76-1.19,1.9-0.83,2.89
			c0.22,0.61,0.72,1.08,1.26,1.45c2.61,1.77,6.65,0.98,8.37-1.63c3.36,1.66,7.57,1.54,10.83-0.31c1.68-0.96,3.23-2.71,2.82-4.58
			c-0.51-2.3-3.43-3.03-5.81-3.31c2.49-0.8,4.55-3.07,4.6-5.63s-2.28-5.08-4.89-4.85c2.59-1.01,5.58-2.51,5.89-5.23
			c0.18-1.61-0.73-3.19-1.98-4.24c-1.25-1.05-2.82-1.66-4.37-2.22c1.98-1.92,1.45-5.52-0.74-7.21c-2.19-1.69-5.45-1.6-7.87-0.26
			c1.05-2.81-0.8-6.15-3.6-7.34s-6.17-0.5-8.68,1.2c0.21-1.53-0.67-3.08-1.96-3.98c-1.28-0.9-2.9-1.24-4.48-1.3
			c-3.34-0.13-7.1,1.26-8.28,4.33c-2.16-2.86-4.73-2.59-7.93-0.91"/>
	</g>
</g>
<g id="Camada_20">
	<text transform="matrix(1 0 0 1 37.4695 324.806)" class="st16 st17 st18">alana barbosa</text>
	<text transform="matrix(1 0 0 1 40.8801 452.4179)" class="st16 st17 st18">alana barbosa</text>
	<text transform="matrix(1 0 0 1 42.6769 584.5066)" class="st16 st17 st18">alana barbosa</text>
	<text transform="matrix(1 0 0 1 57.8206 706.106)" class="st16 st17 st18">alana barbosa</text>
</g>
</svg>
