<?xml version="1.0" encoding="utf-8"?>
<!-- Generator: Adobe Illustrator 23.0.0, SVG Export Plug-In . SVG Version: 6.00 Build 0)  -->
<svg version="1.1" id="Camada_1" xmlns="http://www.w3.org/2000/svg" xmlns:xlink="http://www.w3.org/1999/xlink" x="0px" y="0px"
	 viewBox="0 0 1000 541.1" style="enable-background:new 0 0 1000 541.1;" xml:space="preserve">
<style type="text/css">
	.st0{display:none;}
	.st1{fill:#969BCE;}
	.st2{fill:none;stroke:#969BCD;stroke-width:9;stroke-linecap:round;stroke-miterlimit:10;}
	.st3{fill:url(#SVGID_1_);}
	.st4{fill:url(#SVGID_2_);}
	.st5{fill:url(#SVGID_3_);}
	.st6{fill:#DDDFEC;stroke:#493662;stroke-width:3;stroke-linecap:round;stroke-linejoin:round;stroke-miterlimit:10;}
	.st7{fill:#F4EBB9;}
	.st8{fill:#8E1C1C;}
	.st9{fill:#E0E1EF;}
	.st10{fill:#483365;}
	.st11{fill:#8E181D;}
	.st12{fill:#805248;}
	.st13{fill:#213A8F;}
	.st14{fill:#B3472D;}
	.st15{fill:#010202;}
	.st16{opacity:8.000000e-02;fill:#575756;enable-background:new    ;}
	.st17{font-family:'Montserrat-Bold';}
	.st18{font-size:124.0105px;}
</style>
<g id="Camada_3" class="st0">
</g>
<g id="Camada_18">
</g>
<g id="Camada_5">
	<g id="Camada_8">
	</g>
	<g id="sapato">
	</g>
</g>
<g id="bg">
	<g>
		<path class="st1" d="M336,532.3c-54.2-34.9-109.6-70.8-147.6-120.4c-58.7-76.6-67.3-182.8-21.5-266.5c10.6-19.4,24.1-37.9,42.2-52
			c44.8-35.2,107.1-43.3,166.2-43.9c25.8-0.3,53.8,4.4,78.9,9.8C484.3,65.8,511.7,80,538,95c36.4,20.8,72,43.7,99.8,73.6
			c19.5,20.9,35.2,45.1,58,63.1c57.2,45.1,150.4,44.4,195.8,99.5c27.1,32.9,29.3,77.2,27.9,118.3c-1,29-5.5,62-31.5,78.8"/>
	</g>
	<line class="st2" x1="86" y1="531.7" x2="967.2" y2="531.7"/>
</g>
<g id="Camada_17">
	<g>
		
			<linearGradient id="SVGID_1_" gradientUnits="userSpaceOnUse" x1="8.8697" y1="338.1141" x2="408.1823" y2="338.1141" gradientTransform="matrix(1 0 0 -1 0 670)">
			<stop  offset="0" style="stop-color:#7EAC8A"/>
			<stop  offset="1" style="stop-color:#B2BA83"/>
		</linearGradient>
		<path class="st3" d="M241.3,174.9c-20.2,33.2-44.9,63.6-73.2,90.1c-3.3,3.1-7.4,6.3-11.7,5.2c-4.8-1.2-6.8-6.8-8.1-11.6
			c-4.2-16.5-8.4-33.1-12.6-49.6c-3.8-15-7.7-30.1-15.2-43.6c-7.5-13.5-19.1-25.3-33.9-29.7s-32.6,0.5-40.8,13.5
			c-5.5,8.9-6,20.1-5.2,30.5c4,47.1,31.3,88.6,44.2,134.1c1.6,5.6,2.6,12.6-1.7,16.5c-4,3.7-10.3,2.5-15.3,0.7
			c-8.5-3-16.5-7.4-25.3-9.5s-18.9-1.4-25.5,4.8c-5.5,5.1-7.6,12.9-8.1,20.4c-1,16.2,5,32.8,16.1,44.6
			c10.2,10.9,24.1,17.4,37.6,23.7c27.9,13,55.9,26,83.8,39.1c3.3,1.5,6.8,3.2,8.8,6.2c4.8,7.1-1.3,17.3-9.3,20.2
			c-8,2.9-16.8,1.1-25.3,0.4s-18.1,0-23.8,6.4c-7.8,8.9-2.9,24,6.8,30.9s22.2,7.1,33.8,9.3c24.8,4.6,194.8,0.4,218.2,1.4
			c32.3-12.8-7.1,1.4,13.3-5.6c2.5-0.9,37.8-61,39.1-63.3c1.3-2.3-93.8,5.6-94.2,3c-4.7-30.1-20-20.3-8.6-48.5s25.6-55.5,32.7-85.2
			c3-12.3,4.2-26.6-3.8-36.5c-7.6-9.4-21.8-11.4-33-7s-19.8,13.9-26.1,24.1s-10.8,21.6-16.7,32.2c-5.9,10.6-16.6,21.7-28.1,18
			c-7.8-2.5-12.2-11.3-12.1-19.5c0.1-8.2,3.7-15.9,7.6-23.1c17.9-33.4,43-65.3,45.4-103.1c0.6-9.4-0.4-19.3-5.1-27.5
			s-13.6-14.4-23-13.7"/>
	</g>
	<g>
		
			<linearGradient id="SVGID_2_" gradientUnits="userSpaceOnUse" x1="610.0282" y1="459.7841" x2="1009.3283" y2="459.7841" gradientTransform="matrix(-1 0 0 -1 1455.7584 670)">
			<stop  offset="0" style="stop-color:#7EAC8A"/>
			<stop  offset="1" style="stop-color:#B2BA83"/>
		</linearGradient>
		<path class="st4" d="M613.8,52.5c20.2,33.2,44.4,64.2,72.7,90.8c3.3,3.1,7.4,6.3,11.7,5.2c4.8-1.2,6.8-6.8,8-11.6
			c4.2-16.5,8.4-33.1,12.6-49.6c3.8-15,7.7-30.1,15.2-43.6c7.5-13.5,19.1-25.3,33.9-29.7s32.6,0.5,40.8,13.6
			c5.5,8.9,6,20.1,5.2,30.6c-4,47.1-31.3,88.6-44.2,134.1c-1.6,5.6-2.6,12.6,1.7,16.5c4,3.7,10.3,2.5,15.3,0.7
			c8.5-3,16.5-7.4,25.3-9.5c8.8-2.1,18.9-1.4,25.5,4.8c5.5,5.1,7.6,12.9,8.1,20.4c1,16.2-5,32.8-16.1,44.6
			c-10.2,10.9-24.1,17.4-37.6,23.7c-28,13-55.9,26-83.8,39.1c-3.3,1.5-6.8,3.2-8.8,6.2c-4.8,7.1,1.3,17.3,9.3,20.2
			c8,2.9,16.8,1.1,25.3,0.4s18.1,0,23.8,6.4c7.8,8.9,2.9,24-6.8,30.9s-22.2,7.1-33.8,9.3c-24.8,4.6-194.8,0.4-218.2,1.4
			c-24.1-8.8,10.9,3.3-13.3-5.6c-2.5-0.9-37.8,4.8-39.1,2.4c-1.3-2.3,117.9-19.8,118.3-22.4c4.7-30.1-4.1-60.7-15.5-88.9
			s-25.7-55.5-32.7-85.2c-3-12.3-4.2-26.6,3.8-36.5c7.6-9.4,21.8-11.4,33-7s19.8,13.9,26.1,24.1c6.3,10.3,10.8,21.6,16.7,32.2
			c5.9,10.6,16.6,21.7,28,18c7.8-2.5,12.2-11.3,12.1-19.5s-3.7-15.9-7.6-23.1c-17.9-33.4-43-65.3-45.4-103.1
			c-0.6-9.4,0.4-19.3,5.1-27.5c4.7-8.2,14.7-17.5,22.8-14.6"/>
	</g>
	<g>
		
			<linearGradient id="SVGID_3_" gradientUnits="userSpaceOnUse" x1="715.3901" y1="332.9954" x2="962.6398" y2="332.9954" gradientTransform="matrix(1 0 0 -1 0 670)">
			<stop  offset="0" style="stop-color:#B2BA83"/>
			<stop  offset="1" style="stop-color:#5B7B81"/>
		</linearGradient>
		<path class="st5" d="M939.8,291.8c2.6-23.2,7.9-46.2,15.7-68.2c5-14.2,11-30.3,3.8-43.5c-7.3-13.5-26.6-17.1-40.2-10.1
			s-21.8,21.9-24.7,37c-0.7,3.8-1.3,7.8-3.6,10.8c-4.7,6.1-14.1,5.4-21.4,3.1c-7.3-2.3-15.3-5.6-22.4-2.7c-7,2.9-10.7,11-11.2,18.6
			c-0.6,7.6,1.1,15.2,1.2,22.9c0.2,15.8-6.2,30.9-12.6,45.4c-3.6,8.1-7.2,16.4-12.8,23.2c-5.7,6.8-13.7,12.1-22.6,12.4
			c-9.6,0.3-21.5-4.6-27.5,3c-1.5,1.9-2.3,4.2-2.7,6.6c-2.8,14.9,5.9,29.8,4.9,45c-1.1,17.2-13.9,30.8-23.5,45
			c-9.2,13.6-16,28.8-19.8,44.8c-4.2,17.2,4-22.4-5-7.2c4-9.2,8.7,16.8,18.6,15.2c9.9-1.7,12.3,6.1,22,8.5c11,2.8,12.5,1.8,23.1,6
			c-0.5-16.2,12.1-8.5,20.7-22.2c8.8-14,24.9-21.4,40.5-26.7s32.1-9.9,44.6-20.7s19.4-30.4,10.3-44.3c-5-7.6-14.1-12.7-16.2-21.5
			c-2.3-9.5,4.7-18.9,12.9-24c8.3-5.1,18-7.4,26.3-12.4c16.8-10,26.4-31,22.8-50.4"/>
	</g>
</g>
<g id="Camada_13">
	<polygon class="st6" points="230.4,405.2 180.1,510.4 333.4,481.6 492.5,510.4 638.2,481.6 788.9,510.4 739.5,405.2 608.9,383.1 
		485.9,415.1 366,383.1 	"/>
</g>
<g id="Camada_14">
	<polygon class="st7" points="222,426 283.2,398.2 304.4,394.6 260.9,425.1 314,483.6 292.9,487.7 	"/>
	<polygon class="st7" points="197.1,478.1 293.4,487.6 278.7,490.4 193.1,486.7 	"/>
	<polygon class="st7" points="187.1,499.3 212.6,502.7 226.3,500.2 190.4,492.4 	"/>
	<polygon class="st7" points="334,389.8 382.8,426 370.9,487 401.4,492.4 397.8,393.1 365.9,384.6 	"/>
	<polygon class="st7" points="437.3,403.6 455.4,467.7 516.9,463.3 510,505.3 559,495.7 538.7,402.9 516.6,408.7 519.3,451.8 
		476,451.8 456.8,408.7 	"/>
	<polygon class="st7" points="585.8,390.6 766.6,462.9 749.3,426 599.7,386.9 590.2,389.4 	"/>
	<polygon class="st7" points="620.2,483.8 640.2,389.8 671.9,395 631.4,481.8 	"/>
</g>
<g id="map">
	<path class="st8" d="M357.8,218c0,0,1.5-132.2,126.2-122.9s129.3,115.3,129.3,115.3s3.5,54.1-24.2,90L484,446.2l-94.3-130.3
		C389.7,315.9,356.7,259.8,357.8,218z"/>
	<ellipse class="st9" cx="484.1" cy="218" rx="66.2" ry="64"/>
	<path class="st8" d="M355.6,142.6L355.6,142.6c-1.5,2.1-4.4,2.7-6.6,1.3l-27.6-18.2c-2.2-1.4-2.8-4.4-1.3-6.5l0,0
		c1.5-2.1,4.4-2.7,6.6-1.3l27.6,18.2C356.5,137.6,357,140.5,355.6,142.6z"/>
	<path class="st8" d="M355.3,116.5L355.3,116.5c-1.5,2.1-4.4,2.7-6.6,1.3l-27.6-18.2c-2.2-1.4-2.8-4.4-1.3-6.5l0,0
		c1.5-2.1,4.4-2.7,6.6-1.3L354,110C356.2,111.5,356.8,114.4,355.3,116.5z"/>
	<path class="st8" d="M383.4,106.6L383.4,106.6c-1.5,2.1-4.4,2.7-6.6,1.3l-27.6-18.2c-2.2-1.4-2.8-4.4-1.3-6.5l0,0
		c1.5-2.1,4.4-2.7,6.6-1.3l27.6,18.2C384.3,101.5,384.9,104.4,383.4,106.6z"/>
</g>
<g id="Lupa">
	
		<ellipse transform="matrix(0.1273 -0.9919 0.9919 0.1273 362.1944 802.3618)" class="st10" cx="637.1" cy="195.4" rx="17.8" ry="12.4"/>
	<ellipse transform="matrix(0.126 -0.992 0.992 0.126 362.5715 802.2645)" class="st9" cx="636.6" cy="195.4" rx="15.7" ry="9.8"/>
	<g>
		<path class="st10" d="M633.4,211.6c-0.3,6.1-2.5,12-3.3,18.1c-0.1,0.5-0.1,1.1,0.3,1.5c0.2,0.2,0.5,0.3,0.7,0.4c1,0.4,2,0.6,3,0.8
			c0.1,0,0.2,0,0.3,0c0.2-0.1,0.2-0.3,0.2-0.5c0.1-1.7,0.7-3.3,1.2-4.8c1.8-5,3.6-10.1,3.3-15.4c-1.7,0.2-3.4,0.4-5,0.6
			c-0.1,0-0.3,0-0.4,0.1c-0.1,0.1-0.1,0.2-0.1,0.3c0,0.3,0,0.6,0,0.9"/>
		<g>
			<path class="st10" d="M631.9,211.7c-0.2,3.3-0.9,6.6-1.6,9.8c-0.4,1.6-0.8,3.3-1.1,4.9c-0.3,1.4-0.9,3.2-0.6,4.6
				c0.3,1.5,2.2,1.8,3.4,2.1c1.3,0.3,3.3,0.7,3.8-0.9c0.2-0.7,0.2-1.5,0.3-2.2c0.2-0.9,0.5-1.8,0.9-2.7c0.6-1.6,1.2-3.2,1.7-4.8
				c1.1-3.6,1.9-7.3,1.7-11.1c0-0.7-0.7-1.1-1.3-1c-1.6,0.2-3.2,0.4-4.8,0.6c-0.7,0.1-1.3,0.2-1.8,0.7c-0.5,0.5-0.4,1.2-0.4,1.9
				c0,1.5,2.9,1.1,2.9-0.2c0-0.4,0-0.8,0.1-1.2c-0.2,0.3-0.3,0.5-0.5,0.8c-0.7,0.5,0.2,0.1,0.5,0.1c0.5,0,0.9-0.1,1.4-0.2
				c0.8-0.1,1.7-0.2,2.5-0.3c-0.5-0.3-0.9-0.7-1.3-1c0.2,3.6-0.5,7.1-1.6,10.5c-0.5,1.7-1.1,3.3-1.7,5c-0.3,0.8-0.6,1.6-0.8,2.5
				c-0.1,0.4-0.2,0.8-0.3,1.1c0,0.3-0.1,0.5-0.1,0.8c-0.1,0.5,0,0.5,0.3,0.1c0.4-0.1,0.7-0.3,1.1-0.4c-0.5,0-1-0.2-1.5-0.3
				c-0.3-0.1-1.1-0.2-1.3-0.4c-0.4-0.5,0-1.9,0.1-2.4c0.3-1.8,0.7-3.6,1.1-5.5c0.8-3.7,1.7-7.4,1.9-11.1
				C634.9,209.9,632,210.3,631.9,211.7L631.9,211.7z"/>
		</g>
	</g>
</g>
<g id="sapato_1_">
	<g>
		<path class="st11" d="M657.2,503.4c-2.5,2.1-5.9,2.7-9.1,3.7c-7.3,2.3-13.8,6.7-20.1,11c-1.4,1-2.9,2-4,3.3s-1.8,3.1-1.6,4.8
			c0.1,0.7,0.5,1.5,1.1,1.9c0.5,0.3,1.2,0.3,1.8,0.3c13.8,0,27.6,0,41.4,0c1.3,0,2.7-0.1,3.4-1.1c0.4-0.6,0.5-1.4,0.5-2.2
			c0.2-6.3,0.3-12.6-0.5-18.8c-0.1-0.8-0.3-1.7-0.9-2.3c-0.7-0.7-1.8-0.7-2.8-0.7c-3,0-6.1-0.1-9.1-0.1"/>
	</g>
	<g>
		<path class="st11" d="M795.3,483.3c1.5,2.9,1.4,6.3,1.7,9.5c0.7,7.5,3.6,14.7,6.6,21.6c0.7,1.6,1.3,3.2,2.4,4.5s2.7,2.4,4.4,2.5
			c0.8,0,1.6-0.1,2.1-0.7c0.4-0.4,0.6-1.1,0.7-1.7c3-13.2,6-26.4,9-39.6c0.3-1.2,0.5-2.6-0.4-3.5c-0.5-0.5-1.3-0.8-2-0.9
			c-6.2-1.5-12.5-3-18.8-3.5c-0.8-0.1-1.8-0.1-2.5,0.4c-0.8,0.5-1.1,1.6-1.3,2.5c-0.7,2.9-1.4,5.8-2.1,8.7"/>
	</g>
</g>
<g id="Corpo">
	<g>
		<path class="st12" d="M700.7,164.7c2.5,5.1,5,10.3,5.9,15.9c0.4,2.8,0.5,5.7,0.9,8.6c0.8,5.3,3.2,10.3,6.7,14.3
			c0.8,0.9,1.7,1.8,2.8,2.4c1.2,0.6,2.5,0.7,3.8,0.7c1.9,0,3.9-0.1,5.6-1c2.7-1.3,4.5-3.9,5.6-6.6s1.9-5.6,3.3-8.2
			c0.3-0.6,0.7-1.3,1.3-1.7c0.8-0.5,1.8-0.6,2.6-1c1.7-0.8,2.5-2.5,3.2-4.2c0.4-1,0.8-2.2,0.5-3.3c-0.5-2.3-3.1-3.2-5.4-3.9
			c-1.1-0.3-2.2-0.6-3-1.4c-1.4-1.3-1.7-3.3-2-5.1c-0.4-2.1-1.1-4.2-2.1-6.1c-0.3-0.7-0.7-1.4-1.3-1.9c-0.8-0.8-1.9-1.1-3-1.4
			c-7.7-2-15.9-0.5-23.7,1c-0.3,0-0.6,0.1-0.8,0.3c-0.8,0.6,0.1,2-0.5,2.8"/>
	</g>
	<g>
		<path class="st12" d="M719,204.1c0.3,2.2,0.6,4.5,1.6,6.5c0.8,1.5,2,2.8,2.2,4.5c0,0.4,0,0.8,0.3,1.1c0.3,0.3,0.7,0.4,1.1,0.4
			c3.3,0.3,6.5,0.3,9.8,0c0.1,0,0.3,0,0.4-0.1c0.1-0.1,0.1-0.4,0.1-0.5c-0.9-5.6-2.6-11-5-16.1c-0.2-0.3-0.3-0.6-0.6-0.9
			c-0.3-0.2-0.6-0.2-0.9-0.3c-2.1-0.2-4.2,0.3-6.2,0.9c-1,0.3-2,0.5-2.7,1.3s-0.8,2,0,2.6"/>
	</g>
	<g>
		<path class="st12" d="M818,289.7c4.2,2.8,8.4,5.6,12.6,8.5c0.6,0.4,1.3,0.8,1.7,1.4c0.5,0.6,0.8,1.4,1.1,2.1
			c1.1,2.8,2.2,5.6,3.5,8.3c0.6,1.2,1.3,2.5,2.5,3.2c0.8-0.3,0.8-1.4,0.6-2.2c-0.4-2-0.9-4-1.3-6c0.8,2.4,2.8,4.5,5.3,5.2
			c0.3,0.1,0.7,0.2,1,0c0.5-0.3,0.5-0.9,0.8-1.4c0.7-1.1,2.6-0.8,3.2-1.9c0.1-0.3,0.2-0.5,0.3-0.8c0.3-0.6,1.1-0.7,1.7-1.1
			c1.2-0.8,1.2-2.6,0.4-3.8s-2.1-1.9-3.4-2.5c-2.8-1.4-5.7-2.9-8.5-4.3c-5.8-3-10.5-8-16.7-10.3c-0.4-0.1-1.9,1.8-2.3,1.8
			c-1.5,0-2.3,1.9-1.9,3.3c0.5,1.4,1.8,2.3,3,3.1"/>
	</g>
	<g>
		<path class="st12" d="M627.3,219.1c0.7-3,4.4-4.7,7.6-4.2s5.8,2.7,7.9,5c2.8,3.1,5,6.8,7.2,10.4c1.3,2.1,2.6,4.2,3.9,6.4
			c0.4,0.6,0.8,1.3,0.8,2.1c0.1,1.7-1.7,3-3.4,3.4c-2.8,0.6-5.8-0.2-8.3-1.7c-2.5-1.5-4.4-3.7-6.3-5.9c-2.9-3.5-5.5-7.4-7.7-11.4
			c-0.8-1.4-1.5-2.8-1.5-4.4"/>
	</g>
	<g>
		<path class="st12" d="M734.1,439.9c0.6,4.3,3.3,8.1,6.1,11.4c15.5,18.5,33,30,56.3,37.2c0.8,0.2-0.7,0.3,0,0
			c0.6-0.3,1.6-2.3,1.9-2.8c2.8-4.9,3.8-8.7,6.7-13.6c-23.7-6.5-36.6-20.4-49.9-40.7c-0.6-0.9-1.3-2-2.5-2.1
			c-0.7-0.1-1.3,0.2-1.9,0.5c-5.3,2.7-10.3,6-14.9,9.7c-0.4,0.4-0.9,0.8-1,1.3c0,0.5,0.2,1,0.5,1.4c1.2,1.8,2.4,3.5,3.5,5.3"/>
	</g>
	<g>
		<path class="st12" d="M676.3,431.1c-3.9,2.2-6.4,6-8.6,9.8c-11.8,21-16.3,41.1-14.5,65c0.1,0.8-0.6-0.5,0,0
			c0.5,0.4,2.8,0.6,3.4,0.7c5.7,0.8,8,0.1,13.7,0.9c-2.5-24,7.5-40.7,21.8-60.3c0.7-0.9,1.4-2,1-3c-0.2-0.6-0.7-1.1-1.2-1.6
			c-4.5-3.9-9.5-7.2-14.7-10c-0.5-0.3-1.1-0.5-1.6-0.4c-0.5,0.1-0.8,0.6-1.1,1c-1.2,1.7-2.5,3.4-3.7,5.2"/>
	</g>
</g>
<g id="calça">
	<g>
		<path class="st13" d="M691.9,326.6c-4.5,35.5-24.2,67.4-28.6,103c-0.1,0.7-0.2,1.4,0,2c0.5,1.6,2.2,2.4,3.8,3
			c8.1,3.1,16.1,6.2,24.2,9.3c0.6,0.2,1.2,0.5,1.8,0.4c1.2-0.1,2-1.1,2.7-2.1c9.4-12.9,18.3-34.5,27.2-47.7
			c0.5,10.5,1.5,29.8,3.9,40.1c2.5,10.2,6.2,17.8,13.7,25.3c4.5-10,17.1-10,25.2-17.5c0.7-0.7-1.4-3-1.6-4c-0.5-2.2-0.9-4.1-1.1-5
			c-2.7-13.2,1-24.8,2.5-38.2c1.2-10.8,5.7-22.3,6.3-33.2s2.7-23.4-3.6-32.3c-0.7-1-7.3-0.3-8.5-0.8c-1-0.5-2.2-0.5-3.4-0.5
			c-19.3-0.1-38.6-0.3-57.9-0.4"/>
	</g>
</g>
<g id="Camada_19">
	<g>
		<path class="st13" d="M677.4,382.5c-5.5,9-8.1,19.6-10.6,29.9c-2.1,8.6-4.2,17.3-6.2,25.9c-4.4,18.4-8.8,37-8,55.9
			c0,1.1-0.5,2.5,0.4,3.2c0.7,0.5,2.3,0.5,3.1,0.5c4.4,0,9.4,0.3,13.9,0.3c0.3-3.2,0.6-6.3,1.2-9.4c0.7-3.6,1.4-7.3,3.2-10.5
			c7.6-14,16.8-27.3,24.3-41.4c1.2-2.3,0.8-5.5,0.4-8c-0.2-1.3-0.9-2.5-1.6-3.7c-4.4-7.1-10.4-13.2-17.3-17.7
			c-4.1-2.7-6.4-3.9-8.2-8.5"/>
	</g>
	<g>
		<path class="st13" d="M734.8,419.5c6.1,8.7-6.2,7,2.3,13.3c7.1,5.3-4.3,19.2,1.9,25.3c13.3,13.3,30.5,20.8,48.1,27.5
			c1,0.4,4.1,2.1,5.1,1.6c0.8-0.4,1.6-3.3,1.9-4.1c1.8-4.1,3-8.8,4.8-12.9c-2.8-1.5-6.4-2.8-9-4.6c-3-2.1-6-2.6-8.3-5.4
			c-9.9-12.5-20.2-23.2-30.1-35.7c-1.6-2-3.4-4.1-5.9-4.7c-1.3-0.3-2.7-0.2-4,0c-8.2,1.3,7.2,1.7,0.2,6.3c-4.1,2.7,0.6,6.4-4.3,6.2"
			/>
	</g>
</g>
<g id="Rouoa">
	<g>
		<path class="st14" d="M637.8,239.6c4.7-3,9.3-6,13.9-9c0.6-0.4,1.4-0.8,2.1-0.6c0.7,0.2,1.1,0.8,1.5,1.3
			c2.9,4.3,6.3,8.1,10.2,11.5c0.5,0.4,1,0.8,1.5,1c1.3,0.3,2.5-0.6,3.5-1.4c4.5-3.8,9-7.5,13.5-11.3c10.4-8.7,21.6-17.7,35.2-19.2
			c1-0.1,2.1-0.2,3,0.3c1.3,0.6,1.9,2,2.9,2.9c1.6,1.5,4.3,1.7,6.1,0.5c1.8-1.2,2.6-3.7,1.8-5.7c5.4-1.6,11.3-0.6,16.4,1.7
			c5.1,2.3,9.5,5.9,13.8,9.4c16.4,13.7,31.7,28.6,47,43.5c6.4,6.3,12.8,12.5,19.3,18.8c1,1,2.1,2.1,2.4,3.5c0.4,2-0.9,3.9-2.1,5.5
			c-1.2,1.6-2.5,3.3-3.7,5c-0.8,1-1.7,2.1-3,2.3c-1,0.1-2-0.5-2.9-1c-17-10.4-33.9-20.8-50.9-31.1c-2.6-1.6-5.4-3.3-6.8-6
			c0,10.5,0,21,0.1,31.6c0,6.8,0,13.6,1.4,20.2c1.6,7.7,5,14.9,6.9,22.5c0.4,1.5,0.5,3.3-0.7,4.2c-0.7,0.5-1.7,0.5-2.6,0.5
			c-23.1-1.1-46.3-2.1-69.4-3.2c-1.8-0.1-3.7-0.2-5.1-1.4c-1.9-1.6-1.9-4.5-1.7-7c2.2-25.9,4.6-52.2-1.2-77.5
			c-5.3,7.8-14.8,11.5-23.8,14.9c-2.4,0.9-5,1.8-7.5,1.2c-2.8-0.7-4.7-3-6.4-5.3c-5.5-7.3-10.6-15-15.3-22.9"/>
	</g>
</g>
<g id="Cabelo">
	<g>
		<path class="st15" d="M707.1,145.4c-1.9-0.6-4-1.1-5.8-0.5s-3,3.3-1.6,4.6c-2.4-0.7-5.3,0.9-6,3.3c-0.7,2.4,0.9,5.2,3.3,5.8
			c-2.1,1.1-3.3,3.8-2.7,6s3,4,5.4,4c-0.5,0.5-0.5,1.5,0,2.1c0.4,0.6,1.2,1,1.9,1.2c1.7,0.5,3.6,0.5,5.1-0.3s2.8-2.4,2.8-4.1
			c4.3,2.7,10.5,2.2,14.3-1.2c-0.2,1.6,1.7,2.7,3.3,3c2.1,0.4,4.3,0.4,6.4-0.1c-1.6,1-1.4,3.4-0.1,4.7c1.3,1.3,3.2,1.8,4.9,2.2
			c-1.7,1.5-3.5,3.2-4,5.5c-0.5,2.2,0.8,5,3.2,5.1c-1,0.4-2,0.9-2.7,1.7s-1.2,1.9-0.8,2.9c0.2,0.6,0.7,1.1,1.3,1.5
			c2.6,1.8,6.7,1,8.4-1.6c3.4,1.7,7.6,1.5,10.8-0.3c1.7-1,3.2-2.7,2.8-4.6c-0.5-2.3-3.4-3-5.8-3.3c2.5-0.8,4.5-3.1,4.6-5.6
			s-2.3-5.1-4.9-4.9c2.6-1,5.6-2.5,5.9-5.2c0.2-1.6-0.7-3.2-2-4.2s-2.8-1.7-4.4-2.2c2-1.9,1.5-5.5-0.7-7.2s-5.5-1.6-7.9-0.3
			c1-2.8-0.8-6.1-3.6-7.3s-6.2-0.5-8.7,1.2c0.2-1.5-0.7-3.1-2-4c-1.3-0.9-2.9-1.2-4.5-1.3c-3.3-0.1-7.1,1.3-8.3,4.3
			C712.9,143.5,710.3,143.7,707.1,145.4"/>
	</g>
</g>
<g id="Camada_20">
	<text transform="matrix(1 0 0 1 37.4695 159.806)" class="st16 st17 st18">alana barbosa</text>
	<text transform="matrix(1 0 0 1 40.8801 287.4179)" class="st16 st17 st18">alana barbosa</text>
	<text transform="matrix(1 0 0 1 42.6769 419.5066)" class="st16 st17 st18">alana barbosa</text>
	<text transform="matrix(1 0 0 1 57.8206 541.106)" class="st16 st17 st18">alana barbosa</text>
</g>
</svg>
