<?xml version="1.0" encoding="utf-8"?>
<!-- Generator: Adobe Illustrator 25.2.1, SVG Export Plug-In . SVG Version: 6.00 Build 0)  -->
<svg version="1.1" xmlns="http://www.w3.org/2000/svg" xmlns:xlink="http://www.w3.org/1999/xlink" x="0px" y="0px"
	 viewBox="0 0 1000 1000" style="enable-background:new 0 0 1000 1000;" xml:space="preserve">
<style type="text/css">
	.st0{display:none;}
	.st1{fill:#969BCE;}
	.st2{fill:#969BCE;stroke:#969BCD;stroke-width:9;stroke-linecap:round;stroke-miterlimit:10;}
	.st3{fill:url(#SVGID_1_);}
	.st4{fill:url(#SVGID_2_);}
	.st5{fill:url(#SVGID_3_);}
	.st6{fill:#DDDFEC;stroke:#493662;stroke-width:3;stroke-linecap:round;stroke-linejoin:round;stroke-miterlimit:10;}
	.st7{fill:#F4EBB9;}
	.st8{fill:#8E1C1C;}
	.st9{fill:#E0E1EF;}
	.st10{display:inline;fill:#483365;}
	.st11{display:inline;fill:#E0E1EF;}
	.st12{display:inline;}
	.st13{fill:#483365;}
	.st14{fill:#8E181D;}
	.st15{fill:#805248;}
	.st16{fill:#213A8F;}
	.st17{fill:#B3472D;}
	.st18{fill:#010202;}
	.st19{opacity:0.08;fill:#575756;}
	.st20{font-family:'Montserrat-Bold';}
	.st21{font-size:124.0105px;}
</style>
<g id="Camada_1" class="st0">
</g>
<g id="Camada_3" class="st0">
</g>
<g id="Camada_2" class="st0">
</g>
<g id="Camada_18">
</g>
<g id="Camada_5">
	<g id="Camada_8">
	</g>
	<g id="sapato">
	</g>
</g>
<g id="bg">
	<g>
		<path class="st1" d="M335.99,697.27C281.76,662.4,226.4,626.51,188.4,576.9c-58.7-76.64-67.27-182.82-21.5-266.48
			c10.62-19.42,24.13-37.85,42.16-52.01c44.78-35.16,107.12-43.32,166.21-43.95c25.82-0.27,53.77,4.35,78.88,9.82
			c30.13,6.56,57.54,20.73,83.81,35.69c36.43,20.76,71.99,43.74,99.83,73.57c19.54,20.94,35.18,45.14,57.99,63.11
			c57.18,45.06,150.36,44.41,195.78,99.49c27.13,32.9,29.34,77.2,27.94,118.34c-0.99,29.03-5.54,62.04-31.53,78.84"/>
	</g>
	<line class="st2" x1="86.03" y1="696.73" x2="967.19" y2="696.73"/>
</g>
<g id="Camada_17">
	<g>
		<linearGradient id="SVGID_1_" gradientUnits="userSpaceOnUse" x1="8.877" y1="496.6747" x2="386.4051" y2="496.6747">
			<stop  offset="0" style="stop-color:#7EAC8A"/>
			<stop  offset="1" style="stop-color:#B2BA83"/>
		</linearGradient>
		<path class="st3" d="M241.34,339.86c-20.23,33.18-44.94,63.59-73.24,90.13c-3.26,3.06-7.36,6.29-11.7,5.23
			c-4.82-1.18-6.82-6.82-8.05-11.65c-4.21-16.54-8.41-33.07-12.62-49.61c-3.81-14.97-7.69-30.13-15.18-43.61
			c-7.49-13.49-19.14-25.34-33.88-29.66s-32.6,0.46-40.75,13.55c-5.55,8.91-6.03,20.08-5.15,30.55
			c3.95,47.07,31.3,88.62,44.15,134.06c1.59,5.62,2.61,12.56-1.66,16.51c-3.97,3.67-10.27,2.55-15.35,0.73
			c-8.48-3.05-16.52-7.44-25.29-9.5c-8.77-2.06-18.88-1.36-25.53,4.75c-5.5,5.06-7.64,12.88-8.11,20.36
			c-1.01,16.23,4.96,32.77,16.08,44.57c10.24,10.86,24.09,17.4,37.59,23.69c27.95,13.02,55.9,26.04,83.85,39.06
			c3.31,1.54,6.77,3.21,8.83,6.24c4.81,7.07-1.27,17.28-9.27,20.22c-8,2.94-16.82,1.14-25.3,0.36s-18.11-0.02-23.75,6.4
			c-7.82,8.91-2.86,23.97,6.76,30.86s22.17,7.14,33.79,9.31c24.82,4.64,197.36-1.22,220.74-0.24c27.2-11.72-13,2.8,9.85-4.83
			c2.55-0.85,16.93-51.26,18.22-53.62c1.25-2.29-72.99-0.96-73.39-3.54c-4.66-30.12-18.97-22.64-7.55-50.87s25.65-55.54,32.74-85.18
			c2.95-12.33,4.21-26.64-3.76-36.48c-7.6-9.39-21.82-11.36-33.05-7s-19.77,13.85-26.1,24.15S264.47,496.43,258.6,507
			c-5.88,10.58-16.56,21.67-28.05,18.04c-7.78-2.46-12.21-11.26-12.12-19.47c0.09-8.21,3.73-15.92,7.59-23.14
			C243.9,449,269,417.16,271.38,379.28c0.59-9.44-0.39-19.3-5.07-27.51s-13.63-14.41-23.01-13.72"/>
	</g>
	<g>
		
			<linearGradient id="SVGID_2_" gradientUnits="userSpaceOnUse" x1="610.0347" y1="375.2076" x2="1009.3463" y2="375.2076" gradientTransform="matrix(-1 0 0 1 1455.7584 0)">
			<stop  offset="0" style="stop-color:#7EAC8A"/>
			<stop  offset="1" style="stop-color:#B2BA83"/>
		</linearGradient>
		<path class="st4" d="M613.77,217.54c20.23,33.18,44.43,64.24,72.73,90.78c3.26,3.06,7.36,6.29,11.7,5.23
			c4.82-1.18,6.82-6.82,8.05-11.65c4.21-16.54,8.41-33.07,12.62-49.61c3.81-14.97,7.69-30.13,15.18-43.61
			c7.49-13.49,19.14-25.34,33.88-29.66s32.6,0.46,40.75,13.55c5.55,8.91,6.03,20.08,5.15,30.55c-3.95,47.07-31.3,88.62-44.15,134.06
			c-1.59,5.62-2.61,12.56,1.66,16.51c3.97,3.67,10.27,2.55,15.35,0.73c8.48-3.05,16.52-7.44,25.29-9.5
			c8.77-2.06,18.88-1.36,25.53,4.75c5.5,5.06,7.64,12.88,8.11,20.36c1.01,16.23-4.96,32.77-16.08,44.57
			c-10.24,10.86-24.09,17.4-37.59,23.69c-27.95,13.02-55.9,26.04-83.85,39.06c-3.31,1.54-6.77,3.21-8.83,6.24
			c-4.81,7.07,1.27,17.28,9.27,20.22c8,2.94,16.82,1.14,25.3,0.36s18.11-0.02,23.75,6.4c7.82,8.91,2.86,23.97-6.76,30.86
			s-22.17,7.14-33.79,9.31c-24.82,4.64-194.81,0.41-218.19,1.39c-24.14-8.84,10.85,3.25-13.29-5.59c-2.52-0.92-37.83,4.8-39.12,2.44
			c-1.25-2.29,117.87-19.81,118.27-22.4c4.66-30.12-4.12-60.7-15.54-88.93s-25.65-55.54-32.74-85.18
			c-2.95-12.33-4.21-26.64,3.76-36.48c7.6-9.39,21.82-11.36,33.05-7c11.23,4.36,19.77,13.85,26.1,24.15
			c6.32,10.3,10.82,21.62,16.69,32.19c5.88,10.58,16.56,21.67,28.05,18.04c7.78-2.46,12.21-11.26,12.12-19.47
			s-3.73-15.92-7.59-23.14c-17.88-33.43-42.98-65.26-45.36-103.15c-0.59-9.44,0.39-19.3,5.07-27.51
			c4.67-8.21,14.68-17.49,22.83-14.65"/>
	</g>
	<g>
		<linearGradient id="SVGID_3_" gradientUnits="userSpaceOnUse" x1="704.8316" y1="503.9959" x2="962.6421" y2="503.9959">
			<stop  offset="0" style="stop-color:#B2BA83"/>
			<stop  offset="1" style="stop-color:#5B7B81"/>
		</linearGradient>
		<path class="st5" d="M939.83,456.76c2.64-23.24,7.91-46.18,15.7-68.22c5-14.16,10.95-30.29,3.82-43.5
			c-7.3-13.5-26.56-17.08-40.16-10.09c-13.6,6.99-21.76,21.88-24.68,36.97c-0.73,3.76-1.26,7.76-3.59,10.8
			c-4.69,6.13-14.06,5.43-21.41,3.13c-7.35-2.29-15.29-5.57-22.42-2.67c-7.05,2.87-10.65,10.98-11.24,18.61
			c-0.59,7.63,1.1,15.24,1.21,22.89c0.23,15.84-6.24,30.92-12.59,45.42c-3.56,8.12-7.19,16.37-12.85,23.17
			c-5.66,6.81-13.74,12.1-22.56,12.35c-9.64,0.27-21.51-4.61-27.54,2.96c-1.5,1.88-2.26,4.25-2.7,6.61
			c-2.8,14.92,5.87,29.85,4.93,45.01c-1.07,17.17-13.88,30.84-23.52,45.05c-9.2,13.57-15.95,28.82-19.82,44.78
			c-4.17,17.2-6.5-6.98-15.57,8.19c3.96-9.24,24.37,6.58,34.23,4.93c9.87-1.65,16.7,0.95,26.4,3.41c11.04,2.8,13.81,5.71,24.38,9.98
			c-0.46-16.19,1.28-12.51,9.86-26.23c8.78-14.03,24.92-21.36,40.5-26.74c15.58-5.38,32.09-9.87,44.57-20.69
			c12.48-10.82,19.38-30.44,10.34-44.29c-4.97-7.61-14.07-12.7-16.24-21.54c-2.32-9.46,4.65-18.92,12.91-24.02
			c8.26-5.1,17.95-7.44,26.3-12.39c16.83-9.99,26.38-31.05,22.85-50.38"/>
	</g>
</g>
<g id="Camada_13">
	<polygon class="st6" points="230.37,570.24 180.12,675.36 333.37,646.62 492.48,675.36 638.19,646.62 788.93,675.36 739.52,570.24 
		608.88,548.07 485.89,580.1 366.03,548.07 	"/>
</g>
<g id="Camada_14">
	<polygon class="st7" points="222,591.01 283.19,563.23 304.35,559.63 260.89,590.06 314.01,648.62 292.86,652.67 	"/>
	<polygon class="st7" points="197.14,643.11 293.42,652.57 278.74,655.36 193.09,651.68 	"/>
	<polygon class="st7" points="187.06,664.35 212.56,667.73 226.3,665.18 190.35,657.43 	"/>
	<polygon class="st7" points="333.97,554.75 382.78,591.05 370.89,651.96 401.41,657.37 397.77,558.14 365.89,549.59 	"/>
	<polygon class="st7" points="437.29,568.63 455.36,632.66 516.86,628.28 509.99,670.33 559.02,660.72 538.74,567.9 516.62,573.65 
		519.33,616.78 476.01,616.78 456.81,573.72 	"/>
	<polygon class="st7" points="585.81,555.56 766.6,627.86 749.28,591 599.7,551.91 590.17,554.42 	"/>
	<polygon class="st7" points="620.19,648.83 640.22,554.77 671.87,560.03 631.44,646.85 	"/>
</g>
<g id="map">
	<path class="st8" d="M357.84,383.01c0,0,1.55-132.22,126.22-122.91s129.32,115.33,129.32,115.33s3.45,54.11-24.19,89.97
		L483.96,611.21l-94.26-130.3C389.7,480.92,356.73,424.8,357.84,383.01z"/>
	<ellipse class="st9" cx="484.11" cy="383.01" rx="66.2" ry="64.05"/>
	<path class="st8" d="M355.57,307.65L355.57,307.65c-1.47,2.14-4.43,2.71-6.62,1.27l-27.62-18.21c-2.19-1.44-2.77-4.35-1.3-6.49v0
		c1.47-2.14,4.43-2.71,6.62-1.27l27.62,18.21C356.46,302.6,357.04,305.5,355.57,307.65z"/>
	<path class="st8" d="M355.31,281.51L355.31,281.51c-1.47,2.14-4.43,2.71-6.62,1.27l-27.62-18.21c-2.19-1.44-2.77-4.35-1.3-6.49l0,0
		c1.47-2.14,4.43-2.71,6.62-1.27l27.62,18.21C356.2,276.46,356.78,279.37,355.31,281.51z"/>
	<path class="st8" d="M383.43,271.57L383.43,271.57c-1.47,2.14-4.43,2.71-6.62,1.27l-27.62-18.21c-2.19-1.44-2.77-4.35-1.3-6.49l0,0
		c1.47-2.14,4.43-2.71,6.62-1.27l27.62,18.21C384.32,266.52,384.9,269.43,383.43,271.57z"/>
</g>
<g id="Lupa" class="st0">
	
		<ellipse transform="matrix(0.1273 -0.9919 0.9919 0.1273 198.4774 946.3773)" class="st10" cx="637.06" cy="360.4" rx="17.83" ry="12.36"/>
	
		<ellipse transform="matrix(0.126 -0.992 0.992 0.126 198.9222 946.4681)" class="st11" cx="636.6" cy="360.34" rx="15.7" ry="9.79"/>
	<g class="st12">
		<path class="st13" d="M633.38,376.58c-0.26,6.13-2.47,12.03-3.28,18.12c-0.07,0.51-0.1,1.1,0.25,1.48c0.19,0.2,0.45,0.31,0.71,0.4
			c0.97,0.35,1.97,0.61,2.98,0.77c0.09,0.02,0.19,0.03,0.28-0.01c0.19-0.08,0.21-0.32,0.22-0.52c0.06-1.67,0.66-3.27,1.24-4.84
			c1.83-4.95,3.56-10.1,3.25-15.36c-1.68,0.2-3.36,0.39-5.04,0.59c-0.14,0.02-0.3,0.04-0.38,0.15c-0.06,0.09-0.07,0.2-0.07,0.31
			c0,0.3,0,0.59,0,0.89"/>
		<g>
			<path class="st13" d="M631.91,376.68c-0.16,3.33-0.86,6.59-1.61,9.83c-0.38,1.62-0.76,3.25-1.09,4.88
				c-0.28,1.37-0.9,3.23-0.57,4.64c0.34,1.47,2.2,1.8,3.44,2.1c1.27,0.31,3.27,0.72,3.84-0.92c0.24-0.68,0.17-1.49,0.33-2.2
				c0.21-0.91,0.54-1.79,0.86-2.66c0.58-1.58,1.16-3.16,1.66-4.76c1.13-3.59,1.92-7.28,1.74-11.07c-0.03-0.7-0.67-1.07-1.35-0.99
				c-1.62,0.19-3.24,0.35-4.85,0.57c-0.66,0.09-1.3,0.2-1.79,0.7c-0.51,0.52-0.44,1.19-0.44,1.87c0,1.55,2.94,1.15,2.94-0.2
				c0-0.41-0.02-0.8,0.07-1.19c-0.17,0.26-0.33,0.53-0.5,0.79c-0.71,0.47,0.16,0.15,0.46,0.11c0.45-0.05,0.91-0.11,1.36-0.16
				c0.84-0.1,1.68-0.2,2.52-0.29c-0.45-0.33-0.9-0.66-1.35-0.99c0.17,3.58-0.52,7.09-1.58,10.5c-0.52,1.67-1.12,3.31-1.73,4.95
				c-0.3,0.82-0.59,1.64-0.81,2.49c-0.1,0.37-0.19,0.75-0.25,1.13c-0.04,0.25-0.08,0.51-0.1,0.76c-0.11,0.48-0.03,0.51,0.26,0.11
				c0.36-0.13,0.73-0.27,1.09-0.4c-0.46,0.01-1.01-0.19-1.45-0.31c-0.3-0.08-1.11-0.2-1.32-0.44c-0.44-0.5,0.03-1.85,0.13-2.42
				c0.31-1.83,0.72-3.65,1.14-5.46c0.85-3.68,1.73-7.35,1.91-11.14C634.93,374.94,631.98,375.32,631.91,376.68L631.91,376.68z"/>
		</g>
	</g>
</g>
<g id="sapato_1_">
	<g>
		<path class="st14" d="M657.23,668.39c-2.51,2.1-5.92,2.73-9.07,3.7c-7.35,2.26-13.79,6.65-20.11,10.97
			c-1.44,0.99-2.89,1.99-4,3.32c-1.11,1.33-1.84,3.07-1.57,4.77c0.11,0.73,0.45,1.48,1.1,1.86c0.53,0.3,1.18,0.31,1.79,0.31
			c13.79,0.01,27.58,0.01,41.37,0.02c1.26,0,2.72-0.1,3.44-1.11c0.44-0.62,0.48-1.42,0.49-2.17c0.16-6.28,0.33-12.59-0.54-18.81
			c-0.12-0.83-0.28-1.72-0.9-2.31c-0.71-0.67-1.81-0.73-2.79-0.74c-3.04-0.04-6.09-0.09-9.13-0.13"/>
	</g>
	<g>
		<path class="st14" d="M795.27,648.35c1.55,2.86,1.44,6.26,1.72,9.48c0.66,7.53,3.63,14.65,6.57,21.63
			c0.67,1.59,1.35,3.2,2.44,4.55s2.66,2.42,4.41,2.53c0.75,0.05,1.57-0.11,2.09-0.65c0.42-0.44,0.57-1.06,0.7-1.65
			c2.99-13.2,5.98-26.4,8.97-39.61c0.27-1.2,0.49-2.62-0.36-3.53c-0.52-0.55-1.31-0.76-2.05-0.94c-6.21-1.52-12.46-3.04-18.84-3.55
			c-0.85-0.07-1.78-0.1-2.49,0.36c-0.82,0.54-1.11,1.57-1.34,2.52c-0.7,2.9-1.41,5.81-2.11,8.71"/>
	</g>
</g>
<g id="Camada_20">
</g>
<g id="Corpo">
	<g>
		<path class="st15" d="M700.67,329.67c2.49,5.1,5.01,10.3,5.89,15.89c0.44,2.84,0.45,5.73,0.9,8.57
			c0.83,5.26,3.19,10.28,6.73,14.32c0.81,0.93,1.71,1.82,2.83,2.36c1.18,0.57,2.53,0.71,3.85,0.74c1.9,0.04,3.86-0.15,5.58-0.95
			c2.71-1.27,4.47-3.92,5.64-6.62s1.89-5.6,3.25-8.23c0.34-0.65,0.73-1.31,1.35-1.73c0.77-0.53,1.77-0.6,2.63-0.99
			c1.66-0.75,2.52-2.54,3.15-4.22c0.39-1.05,0.75-2.17,0.52-3.26c-0.49-2.25-3.12-3.24-5.37-3.87c-1.07-0.3-2.17-0.63-3-1.35
			c-1.43-1.25-1.67-3.31-2.03-5.15c-0.42-2.13-1.12-4.2-2.08-6.15c-0.34-0.68-0.71-1.36-1.27-1.88c-0.8-0.75-1.89-1.1-2.95-1.37
			c-7.73-1.96-15.89-0.55-23.72,0.97c-0.28,0.05-0.57,0.12-0.79,0.3c-0.75,0.64,0.06,1.99-0.52,2.77"/>
	</g>
	<g>
		<path class="st15" d="M719.03,369.06c0.27,2.24,0.56,4.53,1.6,6.53c0.78,1.49,1.98,2.84,2.18,4.51c0.05,0.37,0.05,0.78,0.3,1.07
			c0.26,0.31,0.72,0.37,1.13,0.41c3.25,0.29,6.52,0.31,9.78,0.05c0.14-0.01,0.28-0.03,0.38-0.12c0.14-0.13,0.12-0.35,0.09-0.54
			c-0.91-5.56-2.6-10.99-4.99-16.11c-0.15-0.32-0.31-0.65-0.61-0.85c-0.25-0.17-0.57-0.22-0.87-0.25c-2.08-0.2-4.16,0.34-6.18,0.87
			c-0.97,0.25-2,0.54-2.69,1.26c-0.69,0.72-0.85,2.02-0.05,2.63"/>
	</g>
	<g>
		<path class="st15" d="M734.08,604.93c0.63,4.32,3.32,8.07,6.14,11.44c15.51,18.52,32.96,30.05,56.29,37.19
			c0.78,0.24-0.73,0.35,0,0c0.59-0.28,1.6-2.28,1.92-2.84c2.85-4.9,3.81-8.69,6.66-13.6c-23.7-6.54-36.59-20.37-49.89-40.7
			c-0.61-0.93-1.35-1.96-2.47-2.07c-0.68-0.06-1.33,0.24-1.94,0.55c-5.32,2.69-10.33,5.96-14.92,9.73c-0.44,0.36-0.9,0.78-0.96,1.34
			c-0.05,0.5,0.24,0.95,0.52,1.37c1.18,1.75,2.36,3.5,3.54,5.25"/>
	</g>
	<g>
		<path class="st15" d="M676.26,596.14c-3.86,2.17-6.43,6-8.59,9.81c-11.84,20.96-16.35,41.12-14.54,65.02c0.06,0.79-0.6-0.54,0,0
			c0.48,0.43,2.75,0.61,3.4,0.7c5.7,0.79,8.02,0.08,13.72,0.87c-2.53-24.02,7.47-40.66,21.84-60.27c0.66-0.9,1.36-1.96,1.05-3.02
			c-0.19-0.64-0.72-1.13-1.24-1.57c-4.51-3.86-9.46-7.22-14.72-10.02c-0.5-0.27-1.07-0.54-1.62-0.38c-0.49,0.14-0.82,0.57-1.11,0.98
			c-1.23,1.72-2.45,3.44-3.68,5.16"/>
	</g>
	<g>
		<path class="st15" d="M631.48,350.39c-10.29-4.37-20.57-8.75-30.86-13.12c-3.94-1.67-8.06-3.38-12.33-3.11
			c-0.23,0.01-0.48,0.04-0.65,0.2c-0.27,0.24-0.23,0.66-0.17,1.01c1.35,7.21,7.87,13.13,15.17,13.77c3.63,0.32,7.32-0.53,10.9,0.16
			c1.6,0.31,3.13,0.91,4.62,1.58c3.28,1.47,6.43,3.24,9.38,5.29c0.59,0.41,1.48,0.8,1.94,0.25c0.15-0.17,0.2-0.4,0.25-0.63
			c0.37-1.64,0.7-3.29,0.99-4.95"/>
	</g>
	<g>
		<path class="st15" d="M831.73,353.25c5.95-1.13,11.81-2.69,17.54-4.66c2.57-0.88,5.13-1.85,7.82-2.24
			c1.6-0.23,3.23-0.25,4.85-0.26c3.72-0.02,7.44,0.01,11.16,0.09c0.22,0,0.45,0.01,0.63,0.13c0.19,0.12,0.28,0.35,0.35,0.56
			c0.4,1.27,0.01,2.76-0.95,3.68c-0.75,0.71-1.76,1.06-2.73,1.39c-2.2,0.74-4.41,1.47-6.62,2.17c-2.21,0.7-4.45,1.39-6.75,1.68
			c-2.31,0.29-4.71,0.16-6.85-0.73c-0.24-0.1-0.48-0.21-0.74-0.2c-0.24,0.01-0.47,0.11-0.69,0.21c-4.62,2.16-9.43,4.02-14.46,4.81
			c-0.49,0.08-1.05,0.13-1.44-0.17c-0.3-0.23-0.44-0.62-0.54-0.99c-0.5-1.73-0.78-3.53-0.82-5.34"/>
	</g>
</g>
<g id="calça">
	<g>
		<path class="st16" d="M691.9,491.61c-4.55,35.52-24.18,67.44-28.63,102.97c-0.08,0.67-0.16,1.36,0.02,2.01
			c0.45,1.59,2.2,2.39,3.76,2.99c8.07,3.09,16.13,6.19,24.2,9.28c0.59,0.23,1.2,0.45,1.83,0.4c1.19-0.1,2.04-1.14,2.73-2.09
			c9.38-12.88,18.31-34.51,27.2-47.72c0.47,10.51,1.45,29.84,3.9,40.08c2.46,10.24,6.16,17.8,13.66,25.33
			c4.53-10,17.07-10.01,25.16-17.55c0.73-0.68-1.41-2.98-1.64-3.95c-0.51-2.15-0.89-4.09-1.07-4.99c-2.74-13.15,1-24.85,2.45-38.2
			c1.18-10.84,5.67-22.3,6.25-33.19c0.58-10.89,2.74-23.36-3.63-32.3c-0.74-1.03-7.28-0.29-8.45-0.81
			c-1.04-0.47-2.23-0.49-3.38-0.49c-19.29-0.13-38.58-0.25-57.87-0.38"/>
	</g>
</g>
<g id="Camada_19">
	<g>
		<path class="st16" d="M677.36,547.54c-5.53,9.05-8.08,19.56-10.56,29.88c-2.07,8.64-4.15,17.29-6.22,25.93
			c-4.4,18.36-8.83,37-8.05,55.86c0.05,1.13-0.45,2.49,0.44,3.18c0.69,0.53,2.26,0.46,3.13,0.47c4.43,0.01,9.44,0.28,13.86,0.29
			c0.31-3.19,0.57-6.28,1.2-9.42c0.72-3.6,1.43-7.31,3.17-10.54c7.56-14.05,16.75-27.34,24.31-41.39c1.21-2.26,0.84-5.49,0.4-8.01
			c-0.23-1.34-0.92-2.55-1.64-3.7c-4.42-7.06-10.38-13.15-17.34-17.72c-4.11-2.69-6.44-3.88-8.19-8.47"/>
	</g>
	<g>
		<path class="st16" d="M734.77,584.51c6.14,8.65-6.23,6.99,2.27,13.34c7.13,5.31-4.28,19.15,1.88,25.31
			c13.35,13.35,30.49,20.75,48.13,27.47c1.05,0.4,4.13,2.11,5.12,1.56c0.76-0.42,1.6-3.32,1.94-4.12c1.76-4.06,3.03-8.82,4.78-12.88
			c-2.81-1.54-6.41-2.81-9.05-4.63c-3.03-2.08-6.05-2.56-8.34-5.43c-9.93-12.49-20.18-23.23-30.11-35.71
			c-1.59-2.01-3.38-4.13-5.87-4.73c-1.32-0.32-2.71-0.16-4.05,0.05c-8.23,1.27,7.18,1.69,0.23,6.28c-4.1,2.71,0.61,6.4-4.29,6.19"/>
	</g>
</g>
<g id="Camada_21">
	<g>
		<path class="st17" d="M628.81,349.43c13.69,7.21,27.69,12.47,42.16,17.95c8.63,3.27,17.41,6.22,26.44,8.1
			c16.29,3.4,33.08,3.24,49.72,3.07c13.86-0.14,27.97-0.32,41.13-4.66c15.54-5.12,28.72-15.71,43.92-21.75
			c0.66-0.26,1.38-0.52,2.06-0.3c0.94,0.31,1.36,1.39,1.65,2.33c0.87,2.82,1.74,5.64,2.61,8.46c-13.27,6.73-26.59,13.49-38.65,22.21
			c-9.11,6.59-17.61,14.34-27.99,18.66c-1.91,0.8-3.94,1.51-5.41,2.96c-1.85,1.83-2.51,4.52-3,7.07
			c-5.19,27.36-5.06,45.43,2.12,72.34c0.3,1.11,2.27,7.79,2.26,10.36c0,0.62-2.55,0.85-3.16,0.94c-10.33,1.49-15.75,0.94-26.14,0
			c-14.3-1.29-29.06-1.34-44.92-5.81c1.29-29.64,0.48-54.61-1.44-84.21c-0.13-1.96-0.26-3.95-0.96-5.79
			c-2-5.23-7.85-7.67-13.05-9.75c-15.74-6.3-30.82-14.27-44.89-23.73c-3.17-2.13-8.36-4.44-7.68-8.2c0.57-3.11,1.25-5.27,3.18-10.12
			"/>
		<g>
			<path class="st17" d="M627.44,349.92c13.33,7,27.39,12.36,41.45,17.68c7.14,2.7,14.35,5.24,21.75,7.14
				c7.41,1.9,14.96,3.06,22.58,3.7c7.73,0.65,15.5,0.79,23.26,0.77c7.55-0.01,15.12-0.04,22.67-0.33c7.42-0.29,14.85-0.97,22.11-2.6
				c6.9-1.55,13.48-4.08,19.79-7.25c7-3.51,13.68-7.63,20.58-11.32c3.43-1.83,6.97-3.79,10.64-5.08c0.95-0.33,1.39,0.08,1.81,0.98
				c0.41,0.89,0.64,1.9,0.93,2.84c0.68,2.19,1.35,4.39,2.03,6.58c0.21-0.19,0.41-0.38,0.62-0.57c-13.6,6.9-27.28,13.84-39.63,22.86
				c-5.83,4.26-11.38,8.92-17.44,12.86c-3.05,1.98-6.22,3.75-9.57,5.15c-2.88,1.21-5.79,2.37-7.38,5.26
				c-1.69,3.09-1.98,7.01-2.57,10.42c-0.62,3.59-1.16,7.19-1.6,10.81c-0.8,6.66-1.22,13.36-1.08,20.06
				c0.29,13.19,2.92,26.05,6.36,38.74c0.64,2.34,1.33,4.75,1.56,7.18c0.01,0.11-0.02,0.57,0.05,0.65c0.22,0.27-0.33,0.08,0.37-0.06
				c-0.44,0.08-0.87,0.15-1.32,0.2c-1.86,0.25-3.71,0.5-5.57,0.66c-6.66,0.58-13.27,0-19.9-0.6c-7.37-0.67-14.77-1.02-22.14-1.74
				c-3.75-0.36-7.49-0.83-11.21-1.46c-1.88-0.32-3.76-0.68-5.62-1.09c-0.95-0.21-1.9-0.43-2.85-0.66c-0.78-0.19-2.87-0.35-3.07-1.21
				c-0.19-0.85,0.09-2.08,0.12-2.96c0.04-0.98,0.07-1.95,0.11-2.93c0.07-2.09,0.13-4.17,0.18-6.26c0.1-3.92,0.16-7.84,0.18-11.76
				c0.05-7.51-0.04-15.01-0.24-22.51c-0.21-7.59-0.53-15.17-0.94-22.75c-0.22-4.02-0.45-8.05-0.71-12.07
				c-0.22-3.54-0.17-7.32-2.23-10.37c-3.35-4.95-9.75-6.77-14.99-8.95c-7.05-2.93-13.97-6.2-20.71-9.79
				c-6.61-3.52-13.05-7.34-19.3-11.46c-2.42-1.59-5.1-3-7.31-4.86c-0.92-0.77-1.79-1.69-2.12-2.87c-0.34-1.21,0.08-2.53,0.37-3.71
				c0.66-2.71,1.69-5.32,2.71-7.91c0.19-0.48-2.56-0.23-2.86,0.51c-0.92,2.33-1.85,4.67-2.51,7.1c-0.46,1.69-1.17,3.73-0.38,5.41
				c0.87,1.86,2.8,3.1,4.47,4.16c2.28,1.45,4.54,2.93,6.81,4.39c10.53,6.79,21.58,12.76,33.04,17.83c2.87,1.27,5.77,2.47,8.68,3.64
				c2.27,0.92,4.53,1.87,6.62,3.15c2.05,1.26,3.94,2.85,5.11,4.98c1.5,2.74,1.48,5.98,1.67,9.02c0.82,12.83,1.47,25.66,1.76,38.51
				c0.33,14.58,0.18,29.16-0.45,43.72c0.05,0.1,0.14,0.16,0.26,0.17c8.86,2.47,17.97,3.7,27.12,4.47
				c8.65,0.72,17.31,1.44,25.97,2.04c3.75,0.26,7.5,0.34,11.25,0.1c2.17-0.14,4.34-0.38,6.49-0.67c1.42-0.19,2.88-0.31,4.24-0.76
				c0.5-0.16,1.18-0.36,1.54-0.77c0.35-0.39,0.25-0.83,0.2-1.33c-0.13-1.39-0.46-2.77-0.78-4.12c-0.66-2.75-1.47-5.47-2.16-8.21
				c-2.1-8.27-3.74-16.68-4.51-25.18c-0.71-7.92-0.62-15.89,0.11-23.81c0.41-4.47,1.02-8.93,1.74-13.36c0.37-2.27,0.77-4.54,1.2-6.8
				c0.35-1.87,0.75-3.78,1.67-5.46c1.13-2.06,2.99-3.05,5.08-3.92c1.96-0.81,3.89-1.68,5.77-2.68c3.65-1.94,7.09-4.23,10.43-6.66
				c7.14-5.2,13.96-10.78,21.44-15.51c7.78-4.91,15.91-9.23,24.09-13.42c2-1.02,4.01-2.04,6.01-3.06c0.15-0.07,0.7-0.31,0.62-0.57
				c-0.58-1.88-1.16-3.76-1.74-5.64c-0.45-1.46-0.72-3.57-1.82-4.73c-0.91-0.95-2.35-0.77-3.51-0.46c-1.76,0.46-3.47,1.32-5.13,2.06
				c-6.31,2.84-12.31,6.33-18.32,9.74c-6.09,3.45-12.24,6.87-18.8,9.34c-7,2.64-14.37,3.98-21.8,4.64
				c-7.54,0.67-15.12,0.71-22.69,0.78c-7.76,0.07-15.53,0.12-23.29-0.23c-7.89-0.36-15.77-1.12-23.52-2.69
				c-7.57-1.53-14.96-3.82-22.22-6.43c-15.93-5.72-31.92-11.82-46.92-19.7c-0.52-0.28-1.35-0.02-1.86,0.17
				C628.18,349.15,627,349.69,627.44,349.92L627.44,349.92z"/>
		</g>
	</g>
</g>
<g id="Cabelo">
	<g>
		<path class="st18" d="M705.42,310.41c-1.89-0.58-3.96-1.15-5.81-0.46s-3.01,3.28-1.6,4.64c-2.43-0.68-5.27,0.87-5.95,3.25
			c-0.69,2.38,0.91,5.16,3.34,5.82c-2.13,1.11-3.31,3.75-2.69,6.04s2.96,4.01,5.38,3.95c-0.53,0.55-0.47,1.48-0.03,2.1
			c0.44,0.62,1.17,0.98,1.91,1.22c1.67,0.54,3.57,0.52,5.14-0.26s2.75-2.38,2.79-4.11c4.31,2.73,10.49,2.2,14.25-1.22
			c-0.17,1.61,1.7,2.66,3.31,2.99c2.1,0.43,4.29,0.39,6.37-0.09c-1.56,0.96-1.39,3.42-0.14,4.74c1.25,1.33,3.15,1.81,4.94,2.24
			c-1.74,1.53-3.52,3.23-4.05,5.46c-0.53,2.23,0.85,5.02,3.18,5.15c-0.98,0.44-1.98,0.9-2.73,1.66c-0.75,0.76-1.19,1.9-0.83,2.89
			c0.22,0.61,0.72,1.08,1.26,1.45c2.61,1.77,6.65,0.98,8.37-1.63c3.36,1.66,7.57,1.54,10.83-0.31c1.68-0.96,3.23-2.71,2.82-4.58
			c-0.51-2.3-3.43-3.03-5.81-3.31c2.49-0.8,4.55-3.07,4.6-5.63s-2.29-5.08-4.89-4.85c2.59-1.01,5.58-2.51,5.89-5.23
			c0.18-1.61-0.73-3.19-1.98-4.24c-1.25-1.05-2.82-1.66-4.37-2.22c1.98-1.92,1.45-5.52-0.74-7.21c-2.19-1.69-5.45-1.6-7.87-0.26
			c1.05-2.81-0.8-6.15-3.6-7.34s-6.17-0.5-8.68,1.2c0.21-1.53-0.67-3.08-1.96-3.98c-1.28-0.9-2.9-1.24-4.48-1.3
			c-3.34-0.13-7.1,1.26-8.28,4.33c-2.16-2.86-4.73-2.59-7.93-0.91"/>
	</g>
</g>
<g id="marca_dagua">
	<text transform="matrix(1 0 0 1 56.2504 309.7177)" class="st19 st20 st21">alana barbosa</text>
	<text transform="matrix(1 0 0 1 51.9199 435.4223)" class="st19 st20 st21">alana barbosa</text>
	<text transform="matrix(1 0 0 1 66.4432 573.9612)" class="st19 st20 st21">alana barbosa</text>
	<text transform="matrix(1 0 0 1 70.9696 690.7284)" class="st19 st20 st21">alana barbosa</text>
</g>
</svg>
